<svg width="26" height="28" viewBox="0 0 26 28" fill="none" xmlns="http://www.w3.org/2000/svg">
<g clip-path="url(#clip0_39_30)">
<path d="M10.257 21.6093C5.01554 23.2508 5.01554 18.8737 2.91895 18.3265M17.5951 24.8922V20.6573C17.6344 20.1355 17.5669 19.611 17.397 19.1185C17.2271 18.6261 16.9587 18.1771 16.6097 17.8013C19.9013 17.4183 23.3607 16.1161 23.3607 10.1413C23.3605 8.61353 22.7975 7.14433 21.7883 6.0378C22.2662 4.70115 22.2324 3.2237 21.6939 1.91238C21.6939 1.91238 20.4569 1.52938 17.5951 3.5319C15.1924 2.85216 12.6597 2.85216 10.257 3.5319C7.39517 1.52938 6.15818 1.91238 6.15818 1.91238C5.61975 3.2237 5.58596 4.70115 6.06383 6.0378C5.04712 7.15253 4.48355 8.63502 4.49139 10.1742C4.49139 16.1051 7.95077 17.4073 11.2424 17.8341C10.8975 18.2061 10.6315 18.6498 10.4618 19.1362C10.292 19.6226 10.2222 20.1409 10.257 20.6573V24.8922" stroke="#F5F5F5" stroke-width="3" stroke-linecap="round" stroke-linejoin="round"/>
</g>
<defs>
<clipPath id="clip0_39_30">
<rect x="0.822266" y="0.818115" width="25.1591" height="26.2626" rx="10" fill="white"/>
</clipPath>
</defs>
</svg>
