<svg width="9" height="10" viewBox="0 0 9 10" fill="none" xmlns="http://www.w3.org/2000/svg">
<path d="M4.5 5C5.18199 5 5.83604 4.73661 6.31827 4.26777C6.80051 3.79893 7.07143 3.16304 7.07143 2.5C7.07143 1.83696 6.80051 1.20107 6.31827 0.732233C5.83604 0.263392 5.18199 0 4.5 0C3.81801 0 3.16396 0.263392 2.68173 0.732233C2.19949 1.20107 1.92857 1.83696 1.92857 2.5C1.92857 3.16304 2.19949 3.79893 2.68173 4.26777C3.16396 4.73661 3.81801 5 4.5 5ZM3.58192 5.9375C1.60313 5.9375 0 7.49609 0 9.41992C0 9.74023 0.267188 10 0.596652 10H8.40335C8.73281 10 9 9.74023 9 9.41992C9 7.49609 7.39688 5.9375 5.41808 5.9375H3.58192Z" fill="white"/>
</svg>
