<svg width="9" height="10" viewBox="0 0 9 10" fill="none" xmlns="http://www.w3.org/2000/svg">
<g clip-path="url(#clip0_148_146)">
<path d="M6.10714 2.5C6.10714 2.0856 5.93782 1.68817 5.63642 1.39515C5.33502 1.10212 4.92624 0.9375 4.5 0.9375C4.07376 0.9375 3.66498 1.10212 3.36358 1.39515C3.06218 1.68817 2.89286 2.0856 2.89286 2.5C2.89286 2.9144 3.06218 3.31183 3.36358 3.60485C3.66498 3.89788 4.07376 4.0625 4.5 4.0625C4.92624 4.0625 5.33502 3.89788 5.63642 3.60485C5.93782 3.31183 6.10714 2.9144 6.10714 2.5ZM1.92857 2.5C1.92857 1.83696 2.19949 1.20107 2.68173 0.732233C3.16396 0.263392 3.81801 0 4.5 0C5.18199 0 5.83604 0.263392 6.31827 0.732233C6.80051 1.20107 7.07143 1.83696 7.07143 2.5C7.07143 3.16304 6.80051 3.79893 6.31827 4.26777C5.83604 4.73661 5.18199 5 4.5 5C3.81801 5 3.16396 4.73661 2.68173 4.26777C2.19949 3.79893 1.92857 3.16304 1.92857 2.5ZM0.990402 9.0625H8.01161C7.83281 7.82617 6.73995 6.875 5.42009 6.875H3.58393C2.26406 6.875 1.17121 7.82617 0.992411 9.0625H0.990402ZM0 9.41992C0 7.49609 1.60313 5.9375 3.58192 5.9375H5.41808C7.39688 5.9375 9 7.49609 9 9.41992C9 9.74023 8.73281 10 8.40335 10H0.596652C0.267188 10 0 9.74023 0 9.41992Z" fill="#E69740"/>
</g>
<defs>
<clipPath id="clip0_148_146">
<rect width="9" height="10" fill="white"/>
</clipPath>
</defs>
</svg>
