<svg width="784" height="109" viewBox="0 0 784 109" fill="none" xmlns="http://www.w3.org/2000/svg">
<rect x="4" y="4" width="776" height="100.499" rx="24" fill="#F7EFE7"/>
<rect x="4" y="4" width="776" height="100.499" rx="24" stroke="url(#paint0_linear_60_16)" stroke-width="8"/>
<mask id="path-2-outside-1_60_16" maskUnits="userSpaceOnUse" x="45" y="26" width="679" height="71" fill="black">
<rect fill="white" x="45" y="26" width="679" height="71"/>
<path d="M46.64 81V30.744H52.688V75.744H76.52V81H46.64ZM116.812 81C114.556 81 112.948 80.424 111.988 79.272C111.028 78.12 110.428 76.68 110.188 74.952H109.828C109.012 77.112 107.692 78.816 105.868 80.064C104.092 81.264 101.692 81.864 98.6679 81.864C94.7799 81.864 91.6839 80.856 89.3799 78.84C87.0759 76.824 85.9239 74.064 85.9239 70.56C85.9239 67.104 87.1719 64.44 89.6679 62.568C92.2119 60.696 96.2919 59.76 101.908 59.76H109.828V56.088C109.828 53.352 109.06 51.312 107.524 49.968C105.988 48.576 103.804 47.88 100.972 47.88C98.4759 47.88 96.4359 48.384 94.8519 49.392C93.2679 50.352 91.9959 51.672 91.0359 53.352L87.1479 50.472C87.6279 49.512 88.2759 48.576 89.0919 47.664C89.9079 46.752 90.9159 45.96 92.1159 45.288C93.3159 44.568 94.6839 44.016 96.2199 43.632C97.7559 43.2 99.4599 42.984 101.332 42.984C105.7 42.984 109.156 44.088 111.7 46.296C114.292 48.504 115.588 51.576 115.588 55.512V75.96H120.772V81H116.812ZM99.6759 77.04C101.164 77.04 102.508 76.872 103.708 76.536C104.956 76.152 106.036 75.672 106.948 75.096C107.86 74.472 108.556 73.752 109.036 72.936C109.564 72.072 109.828 71.16 109.828 70.2V64.08H101.908C98.4519 64.08 95.9319 64.56 94.3479 65.52C92.7639 66.48 91.9719 67.872 91.9719 69.696V71.208C91.9719 73.128 92.6439 74.592 93.9879 75.6C95.3799 76.56 97.2759 77.04 99.6759 77.04ZM94.9239 36.504C93.4359 36.504 92.3799 36.192 91.7559 35.568C91.1319 34.944 90.8199 34.152 90.8199 33.192V32.184C90.8199 31.224 91.1319 30.432 91.7559 29.808C92.3799 29.184 93.4359 28.872 94.9239 28.872C96.4119 28.872 97.4679 29.184 98.0919 29.808C98.7159 30.432 99.0279 31.224 99.0279 32.184V33.192C99.0279 34.152 98.7159 34.944 98.0919 35.568C97.4679 36.192 96.4119 36.504 94.9239 36.504ZM108.316 36.504C106.828 36.504 105.772 36.192 105.148 35.568C104.524 34.944 104.212 34.152 104.212 33.192V32.184C104.212 31.224 104.524 30.432 105.148 29.808C105.772 29.184 106.828 28.872 108.316 28.872C109.804 28.872 110.86 29.184 111.484 29.808C112.108 30.432 112.42 31.224 112.42 32.184V33.192C112.42 34.152 112.108 34.944 111.484 35.568C110.86 36.192 109.804 36.504 108.316 36.504ZM129.888 76.104H140.76V48.744H129.888V43.848H146.52V53.208H146.88C147.648 50.28 149.088 48 151.2 46.368C153.36 44.688 156.096 43.848 159.408 43.848H164.592V49.608H157.608C154.296 49.608 151.608 50.568 149.544 52.488C147.528 54.408 146.52 56.928 146.52 60.048V76.104H160.92V81H129.888V76.104ZM189.116 81.864C186.524 81.864 184.172 81.408 182.06 80.496C179.996 79.584 178.22 78.288 176.732 76.608C175.292 74.88 174.188 72.84 173.42 70.488C172.652 68.088 172.268 65.4 172.268 62.424C172.268 59.496 172.652 56.832 173.42 54.432C174.188 52.032 175.292 49.992 176.732 48.312C178.22 46.584 179.996 45.264 182.06 44.352C184.172 43.44 186.524 42.984 189.116 42.984C191.708 42.984 194.036 43.44 196.1 44.352C198.212 45.264 199.988 46.584 201.428 48.312C202.916 49.992 204.044 52.032 204.812 54.432C205.58 56.832 205.964 59.496 205.964 62.424C205.964 65.4 205.58 68.088 204.812 70.488C204.044 72.84 202.916 74.88 201.428 76.608C199.988 78.288 198.212 79.584 196.1 80.496C194.036 81.408 191.708 81.864 189.116 81.864ZM189.116 76.896C192.332 76.896 194.924 75.936 196.892 74.016C198.86 72.096 199.844 69.12 199.844 65.088V59.76C199.844 55.728 198.86 52.752 196.892 50.832C194.924 48.912 192.332 47.952 189.116 47.952C185.9 47.952 183.308 48.912 181.34 50.832C179.372 52.752 178.388 55.728 178.388 59.76V65.088C178.388 69.12 179.372 72.096 181.34 74.016C183.308 75.936 185.9 76.896 189.116 76.896ZM217.528 43.848H223.288V49.896H223.576C225.976 45.288 229.792 42.984 235.024 42.984C239.584 42.984 243.136 44.688 245.68 48.096C248.272 51.504 249.568 56.28 249.568 62.424C249.568 68.568 248.272 73.344 245.68 76.752C243.136 80.16 239.584 81.864 235.024 81.864C229.792 81.864 225.976 79.56 223.576 74.952H223.288V95.4H217.528V43.848ZM232.792 76.752C236.152 76.752 238.744 75.744 240.568 73.728C242.44 71.664 243.376 68.952 243.376 65.592V59.256C243.376 55.896 242.44 53.208 240.568 51.192C238.744 49.128 236.152 48.096 232.792 48.096C231.496 48.096 230.272 48.264 229.12 48.6C227.968 48.936 226.96 49.44 226.096 50.112C225.232 50.736 224.536 51.528 224.008 52.488C223.528 53.4 223.288 54.48 223.288 55.728V69.12C223.288 70.368 223.528 71.472 224.008 72.432C224.536 73.344 225.232 74.136 226.096 74.808C226.96 75.432 227.968 75.912 229.12 76.248C230.272 76.584 231.496 76.752 232.792 76.752ZM259.619 76.104H272.579V32.616H259.619V27.72H278.339V76.104H291.299V81H259.619V76.104ZM332.671 81C330.415 81 328.807 80.424 327.847 79.272C326.887 78.12 326.287 76.68 326.047 74.952H325.687C324.871 77.112 323.551 78.816 321.727 80.064C319.951 81.264 317.551 81.864 314.527 81.864C310.639 81.864 307.543 80.856 305.239 78.84C302.935 76.824 301.783 74.064 301.783 70.56C301.783 67.104 303.031 64.44 305.527 62.568C308.071 60.696 312.151 59.76 317.767 59.76H325.687V56.088C325.687 53.352 324.919 51.312 323.383 49.968C321.847 48.576 319.663 47.88 316.831 47.88C314.335 47.88 312.295 48.384 310.711 49.392C309.127 50.352 307.855 51.672 306.895 53.352L303.007 50.472C303.487 49.512 304.135 48.576 304.951 47.664C305.767 46.752 306.775 45.96 307.975 45.288C309.175 44.568 310.543 44.016 312.079 43.632C313.615 43.2 315.319 42.984 317.191 42.984C321.559 42.984 325.015 44.088 327.559 46.296C330.151 48.504 331.447 51.576 331.447 55.512V75.96H336.631V81H332.671ZM315.535 77.04C317.023 77.04 318.367 76.872 319.567 76.536C320.815 76.152 321.895 75.672 322.807 75.096C323.719 74.472 324.415 73.752 324.895 72.936C325.423 72.072 325.687 71.16 325.687 70.2V64.08H317.767C314.311 64.08 311.791 64.56 310.207 65.52C308.623 66.48 307.831 67.872 307.831 69.696V71.208C307.831 73.128 308.503 74.592 309.847 75.6C311.239 76.56 313.135 77.04 315.535 77.04ZM363.603 81C360.771 81 358.683 80.208 357.339 78.624C356.043 77.04 355.395 75 355.395 72.504V48.744H343.011V43.848H352.227C353.475 43.848 354.339 43.608 354.819 43.128C355.347 42.6 355.611 41.712 355.611 40.464V30.744H361.155V43.848H378.075V48.744H361.155V76.104H378.075V81H363.603ZM406.775 81C403.943 81 401.855 80.208 400.511 78.624C399.215 77.04 398.567 75 398.567 72.504V48.744H386.183V43.848H395.399C396.647 43.848 397.511 43.608 397.991 43.128C398.519 42.6 398.783 41.712 398.783 40.464V30.744H404.327V43.848H421.247V48.744H404.327V76.104H421.247V81H406.775ZM476.199 81V30.744H507.879V36H482.247V52.92H505.719V58.176H482.247V81H476.199ZM534.491 81.864C531.899 81.864 529.547 81.408 527.435 80.496C525.371 79.584 523.595 78.288 522.107 76.608C520.667 74.88 519.563 72.84 518.795 70.488C518.027 68.088 517.643 65.4 517.643 62.424C517.643 59.496 518.027 56.832 518.795 54.432C519.563 52.032 520.667 49.992 522.107 48.312C523.595 46.584 525.371 45.264 527.435 44.352C529.547 43.44 531.899 42.984 534.491 42.984C537.083 42.984 539.411 43.44 541.475 44.352C543.587 45.264 545.363 46.584 546.803 48.312C548.291 49.992 549.419 52.032 550.187 54.432C550.955 56.832 551.339 59.496 551.339 62.424C551.339 65.4 550.955 68.088 550.187 70.488C549.419 72.84 548.291 74.88 546.803 76.608C545.363 78.288 543.587 79.584 541.475 80.496C539.411 81.408 537.083 81.864 534.491 81.864ZM534.491 76.896C537.707 76.896 540.299 75.936 542.267 74.016C544.235 72.096 545.219 69.12 545.219 65.088V59.76C545.219 55.728 544.235 52.752 542.267 50.832C540.299 48.912 537.707 47.952 534.491 47.952C531.275 47.952 528.683 48.912 526.715 50.832C524.747 52.752 523.763 55.728 523.763 59.76V65.088C523.763 69.12 524.747 72.096 526.715 74.016C528.683 75.936 531.275 76.896 534.491 76.896ZM561.607 76.104H572.479V48.744H561.607V43.848H578.239V53.208H578.599C579.367 50.28 580.807 48 582.919 46.368C585.079 44.688 587.815 43.848 591.127 43.848H596.311V49.608H589.327C586.015 49.608 583.327 50.568 581.263 52.488C579.247 54.408 578.239 56.928 578.239 60.048V76.104H592.639V81H561.607V76.104ZM603.122 81V43.848H608.45V48.168H608.738C609.314 46.728 610.13 45.504 611.186 44.496C612.242 43.488 613.802 42.984 615.866 42.984C618.026 42.984 619.634 43.536 620.69 44.64C621.746 45.696 622.394 47.088 622.634 48.816H622.85C623.522 47.136 624.482 45.744 625.73 44.64C626.978 43.536 628.706 42.984 630.914 42.984C633.938 42.984 635.954 44.04 636.962 46.152C638.018 48.264 638.546 51.288 638.546 55.224V81H633.218V56.16C633.218 52.992 632.882 50.808 632.21 49.608C631.586 48.36 630.41 47.736 628.682 47.736C627.146 47.736 625.898 48.24 624.938 49.248C623.978 50.208 623.498 51.696 623.498 53.712V81H618.17V56.16C618.17 52.992 617.834 50.808 617.162 49.608C616.538 48.36 615.386 47.736 613.706 47.736C612.17 47.736 610.898 48.24 609.89 49.248C608.93 50.208 608.45 51.696 608.45 53.712V81H603.122ZM664.654 81.864C661.966 81.864 659.542 81.408 657.382 80.496C655.27 79.584 653.446 78.288 651.91 76.608C650.422 74.88 649.27 72.84 648.454 70.488C647.638 68.088 647.23 65.424 647.23 62.496C647.23 59.52 647.638 56.832 648.454 54.432C649.318 52.032 650.494 49.992 651.982 48.312C653.47 46.584 655.246 45.264 657.31 44.352C659.422 43.44 661.75 42.984 664.294 42.984C666.79 42.984 669.046 43.44 671.062 44.352C673.126 45.264 674.878 46.536 676.318 48.168C677.758 49.752 678.862 51.648 679.63 53.856C680.398 56.064 680.782 58.488 680.782 61.128V63.864H653.278V65.592C653.278 67.224 653.542 68.736 654.07 70.128C654.598 71.52 655.342 72.72 656.302 73.728C657.31 74.736 658.51 75.528 659.902 76.104C661.342 76.632 662.926 76.896 664.654 76.896C667.15 76.896 669.31 76.32 671.134 75.168C672.958 74.016 674.35 72.432 675.31 70.416L679.558 73.296C678.454 75.792 676.606 77.856 674.014 79.488C671.47 81.072 668.35 81.864 664.654 81.864ZM664.294 47.736C662.71 47.736 661.246 48.024 659.902 48.6C658.558 49.176 657.382 49.968 656.374 50.976C655.414 51.984 654.646 53.184 654.07 54.576C653.542 55.92 653.278 57.408 653.278 59.04V59.544H674.59V58.752C674.59 57.12 674.326 55.632 673.798 54.288C673.318 52.944 672.622 51.792 671.71 50.832C670.846 49.824 669.766 49.056 668.47 48.528C667.222 48 665.83 47.736 664.294 47.736ZM692.634 81V43.848H698.394V49.896H698.682C699.066 48.984 699.546 48.12 700.122 47.304C700.698 46.44 701.394 45.696 702.21 45.072C703.074 44.448 704.082 43.944 705.234 43.56C706.386 43.176 707.73 42.984 709.266 42.984C713.154 42.984 716.274 44.232 718.626 46.728C720.978 49.176 722.154 52.656 722.154 57.168V81H716.394V58.176C716.394 54.768 715.65 52.248 714.162 50.616C712.674 48.936 710.49 48.096 707.61 48.096C706.458 48.096 705.33 48.24 704.226 48.528C703.122 48.816 702.138 49.248 701.274 49.824C700.41 50.4 699.714 51.144 699.186 52.056C698.658 52.968 698.394 54.024 698.394 55.224V81H692.634Z"/>
</mask>
<path d="M46.64 81V30.744H52.688V75.744H76.52V81H46.64ZM116.812 81C114.556 81 112.948 80.424 111.988 79.272C111.028 78.12 110.428 76.68 110.188 74.952H109.828C109.012 77.112 107.692 78.816 105.868 80.064C104.092 81.264 101.692 81.864 98.6679 81.864C94.7799 81.864 91.6839 80.856 89.3799 78.84C87.0759 76.824 85.9239 74.064 85.9239 70.56C85.9239 67.104 87.1719 64.44 89.6679 62.568C92.2119 60.696 96.2919 59.76 101.908 59.76H109.828V56.088C109.828 53.352 109.06 51.312 107.524 49.968C105.988 48.576 103.804 47.88 100.972 47.88C98.4759 47.88 96.4359 48.384 94.8519 49.392C93.2679 50.352 91.9959 51.672 91.0359 53.352L87.1479 50.472C87.6279 49.512 88.2759 48.576 89.0919 47.664C89.9079 46.752 90.9159 45.96 92.1159 45.288C93.3159 44.568 94.6839 44.016 96.2199 43.632C97.7559 43.2 99.4599 42.984 101.332 42.984C105.7 42.984 109.156 44.088 111.7 46.296C114.292 48.504 115.588 51.576 115.588 55.512V75.96H120.772V81H116.812ZM99.6759 77.04C101.164 77.04 102.508 76.872 103.708 76.536C104.956 76.152 106.036 75.672 106.948 75.096C107.86 74.472 108.556 73.752 109.036 72.936C109.564 72.072 109.828 71.16 109.828 70.2V64.08H101.908C98.4519 64.08 95.9319 64.56 94.3479 65.52C92.7639 66.48 91.9719 67.872 91.9719 69.696V71.208C91.9719 73.128 92.6439 74.592 93.9879 75.6C95.3799 76.56 97.2759 77.04 99.6759 77.04ZM94.9239 36.504C93.4359 36.504 92.3799 36.192 91.7559 35.568C91.1319 34.944 90.8199 34.152 90.8199 33.192V32.184C90.8199 31.224 91.1319 30.432 91.7559 29.808C92.3799 29.184 93.4359 28.872 94.9239 28.872C96.4119 28.872 97.4679 29.184 98.0919 29.808C98.7159 30.432 99.0279 31.224 99.0279 32.184V33.192C99.0279 34.152 98.7159 34.944 98.0919 35.568C97.4679 36.192 96.4119 36.504 94.9239 36.504ZM108.316 36.504C106.828 36.504 105.772 36.192 105.148 35.568C104.524 34.944 104.212 34.152 104.212 33.192V32.184C104.212 31.224 104.524 30.432 105.148 29.808C105.772 29.184 106.828 28.872 108.316 28.872C109.804 28.872 110.86 29.184 111.484 29.808C112.108 30.432 112.42 31.224 112.42 32.184V33.192C112.42 34.152 112.108 34.944 111.484 35.568C110.86 36.192 109.804 36.504 108.316 36.504ZM129.888 76.104H140.76V48.744H129.888V43.848H146.52V53.208H146.88C147.648 50.28 149.088 48 151.2 46.368C153.36 44.688 156.096 43.848 159.408 43.848H164.592V49.608H157.608C154.296 49.608 151.608 50.568 149.544 52.488C147.528 54.408 146.52 56.928 146.52 60.048V76.104H160.92V81H129.888V76.104ZM189.116 81.864C186.524 81.864 184.172 81.408 182.06 80.496C179.996 79.584 178.22 78.288 176.732 76.608C175.292 74.88 174.188 72.84 173.42 70.488C172.652 68.088 172.268 65.4 172.268 62.424C172.268 59.496 172.652 56.832 173.42 54.432C174.188 52.032 175.292 49.992 176.732 48.312C178.22 46.584 179.996 45.264 182.06 44.352C184.172 43.44 186.524 42.984 189.116 42.984C191.708 42.984 194.036 43.44 196.1 44.352C198.212 45.264 199.988 46.584 201.428 48.312C202.916 49.992 204.044 52.032 204.812 54.432C205.58 56.832 205.964 59.496 205.964 62.424C205.964 65.4 205.58 68.088 204.812 70.488C204.044 72.84 202.916 74.88 201.428 76.608C199.988 78.288 198.212 79.584 196.1 80.496C194.036 81.408 191.708 81.864 189.116 81.864ZM189.116 76.896C192.332 76.896 194.924 75.936 196.892 74.016C198.86 72.096 199.844 69.12 199.844 65.088V59.76C199.844 55.728 198.86 52.752 196.892 50.832C194.924 48.912 192.332 47.952 189.116 47.952C185.9 47.952 183.308 48.912 181.34 50.832C179.372 52.752 178.388 55.728 178.388 59.76V65.088C178.388 69.12 179.372 72.096 181.34 74.016C183.308 75.936 185.9 76.896 189.116 76.896ZM217.528 43.848H223.288V49.896H223.576C225.976 45.288 229.792 42.984 235.024 42.984C239.584 42.984 243.136 44.688 245.68 48.096C248.272 51.504 249.568 56.28 249.568 62.424C249.568 68.568 248.272 73.344 245.68 76.752C243.136 80.16 239.584 81.864 235.024 81.864C229.792 81.864 225.976 79.56 223.576 74.952H223.288V95.4H217.528V43.848ZM232.792 76.752C236.152 76.752 238.744 75.744 240.568 73.728C242.44 71.664 243.376 68.952 243.376 65.592V59.256C243.376 55.896 242.44 53.208 240.568 51.192C238.744 49.128 236.152 48.096 232.792 48.096C231.496 48.096 230.272 48.264 229.12 48.6C227.968 48.936 226.96 49.44 226.096 50.112C225.232 50.736 224.536 51.528 224.008 52.488C223.528 53.4 223.288 54.48 223.288 55.728V69.12C223.288 70.368 223.528 71.472 224.008 72.432C224.536 73.344 225.232 74.136 226.096 74.808C226.96 75.432 227.968 75.912 229.12 76.248C230.272 76.584 231.496 76.752 232.792 76.752ZM259.619 76.104H272.579V32.616H259.619V27.72H278.339V76.104H291.299V81H259.619V76.104ZM332.671 81C330.415 81 328.807 80.424 327.847 79.272C326.887 78.12 326.287 76.68 326.047 74.952H325.687C324.871 77.112 323.551 78.816 321.727 80.064C319.951 81.264 317.551 81.864 314.527 81.864C310.639 81.864 307.543 80.856 305.239 78.84C302.935 76.824 301.783 74.064 301.783 70.56C301.783 67.104 303.031 64.44 305.527 62.568C308.071 60.696 312.151 59.76 317.767 59.76H325.687V56.088C325.687 53.352 324.919 51.312 323.383 49.968C321.847 48.576 319.663 47.88 316.831 47.88C314.335 47.88 312.295 48.384 310.711 49.392C309.127 50.352 307.855 51.672 306.895 53.352L303.007 50.472C303.487 49.512 304.135 48.576 304.951 47.664C305.767 46.752 306.775 45.96 307.975 45.288C309.175 44.568 310.543 44.016 312.079 43.632C313.615 43.2 315.319 42.984 317.191 42.984C321.559 42.984 325.015 44.088 327.559 46.296C330.151 48.504 331.447 51.576 331.447 55.512V75.96H336.631V81H332.671ZM315.535 77.04C317.023 77.04 318.367 76.872 319.567 76.536C320.815 76.152 321.895 75.672 322.807 75.096C323.719 74.472 324.415 73.752 324.895 72.936C325.423 72.072 325.687 71.16 325.687 70.2V64.08H317.767C314.311 64.08 311.791 64.56 310.207 65.52C308.623 66.48 307.831 67.872 307.831 69.696V71.208C307.831 73.128 308.503 74.592 309.847 75.6C311.239 76.56 313.135 77.04 315.535 77.04ZM363.603 81C360.771 81 358.683 80.208 357.339 78.624C356.043 77.04 355.395 75 355.395 72.504V48.744H343.011V43.848H352.227C353.475 43.848 354.339 43.608 354.819 43.128C355.347 42.6 355.611 41.712 355.611 40.464V30.744H361.155V43.848H378.075V48.744H361.155V76.104H378.075V81H363.603ZM406.775 81C403.943 81 401.855 80.208 400.511 78.624C399.215 77.04 398.567 75 398.567 72.504V48.744H386.183V43.848H395.399C396.647 43.848 397.511 43.608 397.991 43.128C398.519 42.6 398.783 41.712 398.783 40.464V30.744H404.327V43.848H421.247V48.744H404.327V76.104H421.247V81H406.775ZM476.199 81V30.744H507.879V36H482.247V52.92H505.719V58.176H482.247V81H476.199ZM534.491 81.864C531.899 81.864 529.547 81.408 527.435 80.496C525.371 79.584 523.595 78.288 522.107 76.608C520.667 74.88 519.563 72.84 518.795 70.488C518.027 68.088 517.643 65.4 517.643 62.424C517.643 59.496 518.027 56.832 518.795 54.432C519.563 52.032 520.667 49.992 522.107 48.312C523.595 46.584 525.371 45.264 527.435 44.352C529.547 43.44 531.899 42.984 534.491 42.984C537.083 42.984 539.411 43.44 541.475 44.352C543.587 45.264 545.363 46.584 546.803 48.312C548.291 49.992 549.419 52.032 550.187 54.432C550.955 56.832 551.339 59.496 551.339 62.424C551.339 65.4 550.955 68.088 550.187 70.488C549.419 72.84 548.291 74.88 546.803 76.608C545.363 78.288 543.587 79.584 541.475 80.496C539.411 81.408 537.083 81.864 534.491 81.864ZM534.491 76.896C537.707 76.896 540.299 75.936 542.267 74.016C544.235 72.096 545.219 69.12 545.219 65.088V59.76C545.219 55.728 544.235 52.752 542.267 50.832C540.299 48.912 537.707 47.952 534.491 47.952C531.275 47.952 528.683 48.912 526.715 50.832C524.747 52.752 523.763 55.728 523.763 59.76V65.088C523.763 69.12 524.747 72.096 526.715 74.016C528.683 75.936 531.275 76.896 534.491 76.896ZM561.607 76.104H572.479V48.744H561.607V43.848H578.239V53.208H578.599C579.367 50.28 580.807 48 582.919 46.368C585.079 44.688 587.815 43.848 591.127 43.848H596.311V49.608H589.327C586.015 49.608 583.327 50.568 581.263 52.488C579.247 54.408 578.239 56.928 578.239 60.048V76.104H592.639V81H561.607V76.104ZM603.122 81V43.848H608.45V48.168H608.738C609.314 46.728 610.13 45.504 611.186 44.496C612.242 43.488 613.802 42.984 615.866 42.984C618.026 42.984 619.634 43.536 620.69 44.64C621.746 45.696 622.394 47.088 622.634 48.816H622.85C623.522 47.136 624.482 45.744 625.73 44.64C626.978 43.536 628.706 42.984 630.914 42.984C633.938 42.984 635.954 44.04 636.962 46.152C638.018 48.264 638.546 51.288 638.546 55.224V81H633.218V56.16C633.218 52.992 632.882 50.808 632.21 49.608C631.586 48.36 630.41 47.736 628.682 47.736C627.146 47.736 625.898 48.24 624.938 49.248C623.978 50.208 623.498 51.696 623.498 53.712V81H618.17V56.16C618.17 52.992 617.834 50.808 617.162 49.608C616.538 48.36 615.386 47.736 613.706 47.736C612.17 47.736 610.898 48.24 609.89 49.248C608.93 50.208 608.45 51.696 608.45 53.712V81H603.122ZM664.654 81.864C661.966 81.864 659.542 81.408 657.382 80.496C655.27 79.584 653.446 78.288 651.91 76.608C650.422 74.88 649.27 72.84 648.454 70.488C647.638 68.088 647.23 65.424 647.23 62.496C647.23 59.52 647.638 56.832 648.454 54.432C649.318 52.032 650.494 49.992 651.982 48.312C653.47 46.584 655.246 45.264 657.31 44.352C659.422 43.44 661.75 42.984 664.294 42.984C666.79 42.984 669.046 43.44 671.062 44.352C673.126 45.264 674.878 46.536 676.318 48.168C677.758 49.752 678.862 51.648 679.63 53.856C680.398 56.064 680.782 58.488 680.782 61.128V63.864H653.278V65.592C653.278 67.224 653.542 68.736 654.07 70.128C654.598 71.52 655.342 72.72 656.302 73.728C657.31 74.736 658.51 75.528 659.902 76.104C661.342 76.632 662.926 76.896 664.654 76.896C667.15 76.896 669.31 76.32 671.134 75.168C672.958 74.016 674.35 72.432 675.31 70.416L679.558 73.296C678.454 75.792 676.606 77.856 674.014 79.488C671.47 81.072 668.35 81.864 664.654 81.864ZM664.294 47.736C662.71 47.736 661.246 48.024 659.902 48.6C658.558 49.176 657.382 49.968 656.374 50.976C655.414 51.984 654.646 53.184 654.07 54.576C653.542 55.92 653.278 57.408 653.278 59.04V59.544H674.59V58.752C674.59 57.12 674.326 55.632 673.798 54.288C673.318 52.944 672.622 51.792 671.71 50.832C670.846 49.824 669.766 49.056 668.47 48.528C667.222 48 665.83 47.736 664.294 47.736ZM692.634 81V43.848H698.394V49.896H698.682C699.066 48.984 699.546 48.12 700.122 47.304C700.698 46.44 701.394 45.696 702.21 45.072C703.074 44.448 704.082 43.944 705.234 43.56C706.386 43.176 707.73 42.984 709.266 42.984C713.154 42.984 716.274 44.232 718.626 46.728C720.978 49.176 722.154 52.656 722.154 57.168V81H716.394V58.176C716.394 54.768 715.65 52.248 714.162 50.616C712.674 48.936 710.49 48.096 707.61 48.096C706.458 48.096 705.33 48.24 704.226 48.528C703.122 48.816 702.138 49.248 701.274 49.824C700.41 50.4 699.714 51.144 699.186 52.056C698.658 52.968 698.394 54.024 698.394 55.224V81H692.634Z" fill="url(#paint1_linear_60_16)"/>
<path d="M46.64 81H45.64V82H46.64V81ZM46.64 30.744V29.744H45.64V30.744H46.64ZM52.688 30.744H53.688V29.744H52.688V30.744ZM52.688 75.744H51.688V76.744H52.688V75.744ZM76.52 75.744H77.52V74.744H76.52V75.744ZM76.52 81V82H77.52V81H76.52ZM47.64 81V30.744H45.64V81H47.64ZM46.64 31.744H52.688V29.744H46.64V31.744ZM51.688 30.744V75.744H53.688V30.744H51.688ZM52.688 76.744H76.52V74.744H52.688V76.744ZM75.52 75.744V81H77.52V75.744H75.52ZM76.52 80H46.64V82H76.52V80ZM111.988 79.272L112.756 78.6318L112.756 78.6318L111.988 79.272ZM110.188 74.952L111.178 74.8144L111.059 73.952H110.188V74.952ZM109.828 74.952V73.952H109.137L108.892 74.5986L109.828 74.952ZM105.868 80.064L106.428 80.8926L106.433 80.8893L105.868 80.064ZM89.3799 78.84L90.0384 78.0874L90.0384 78.0874L89.3799 78.84ZM89.6679 62.568L89.0752 61.7625L89.0679 61.768L89.6679 62.568ZM109.828 59.76V60.76H110.828V59.76H109.828ZM107.524 49.968L106.852 50.709L106.859 50.7148L106.865 50.7206L107.524 49.968ZM94.8519 49.392L95.3702 50.2472L95.3795 50.2415L95.3888 50.2357L94.8519 49.392ZM91.0359 53.352L90.4406 54.1556L91.3455 54.8258L91.9041 53.8481L91.0359 53.352ZM87.1479 50.472L86.2534 50.0248L85.878 50.7758L86.5526 51.2756L87.1479 50.472ZM89.0919 47.664L89.8371 48.3308L89.8371 48.3308L89.0919 47.664ZM92.1159 45.288L92.6045 46.1605L92.6175 46.1532L92.6304 46.1455L92.1159 45.288ZM96.2199 43.632L96.4624 44.6021L96.4766 44.5986L96.4906 44.5946L96.2199 43.632ZM111.7 46.296L111.044 47.0512L111.051 47.0572L111.7 46.296ZM115.588 75.96H114.588V76.96H115.588V75.96ZM120.772 75.96H121.772V74.96H120.772V75.96ZM120.772 81V82H121.772V81H120.772ZM103.708 76.536L103.978 77.499L103.99 77.4955L104.002 77.4918L103.708 76.536ZM106.948 75.096L107.482 75.9415L107.497 75.9317L107.513 75.9213L106.948 75.096ZM109.036 72.936L108.183 72.4145L108.178 72.4217L108.174 72.429L109.036 72.936ZM109.828 64.08H110.828V63.08H109.828V64.08ZM94.3479 65.52L94.8662 66.3752L94.8662 66.3752L94.3479 65.52ZM93.9879 75.6L93.3879 76.4L93.4038 76.4119L93.4201 76.4232L93.9879 75.6ZM91.7559 35.568L91.0488 36.2751L91.0488 36.2751L91.7559 35.568ZM91.7559 29.808L91.0488 29.1009L91.0488 29.1009L91.7559 29.808ZM105.148 35.568L104.441 36.2751L104.441 36.2751L105.148 35.568ZM105.148 29.808L104.441 29.1009L104.441 29.1009L105.148 29.808ZM111.484 29.808L112.191 29.1009L112.191 29.1009L111.484 29.808ZM111.484 35.568L112.191 36.2751L112.191 36.2751L111.484 35.568ZM116.812 80C114.7 80 113.446 79.4603 112.756 78.6318L111.22 79.9122C112.449 81.3877 114.411 82 116.812 82V80ZM112.756 78.6318C111.934 77.6454 111.397 76.3882 111.178 74.8144L109.197 75.0896C109.459 76.9718 110.122 78.5946 111.22 79.9122L112.756 78.6318ZM110.188 73.952H109.828V75.952H110.188V73.952ZM108.892 74.5986C108.145 76.5761 106.95 78.1117 105.303 79.2387L106.433 80.8893C108.433 79.5203 109.878 77.6479 110.763 75.3054L108.892 74.5986ZM105.308 79.2354C103.752 80.2865 101.571 80.864 98.6679 80.864V82.864C101.813 82.864 104.431 82.2415 106.428 80.8926L105.308 79.2354ZM98.6679 80.864C94.9547 80.864 92.1151 79.9045 90.0384 78.0874L88.7214 79.5926C91.2527 81.8075 94.605 82.864 98.6679 82.864V80.864ZM90.0384 78.0874C87.9839 76.2898 86.9239 73.8219 86.9239 70.56H84.9239C84.9239 74.3061 86.1678 77.3582 88.7214 79.5926L90.0384 78.0874ZM86.9239 70.56C86.9239 67.3797 88.0534 65.0289 90.2679 63.368L89.0679 61.768C86.2904 63.8511 84.9239 66.8283 84.9239 70.56H86.9239ZM90.2606 63.3734C92.5438 61.6933 96.3587 60.76 101.908 60.76V58.76C96.2251 58.76 91.88 59.6987 89.0752 61.7626L90.2606 63.3734ZM101.908 60.76H109.828V58.76H101.908V60.76ZM110.828 59.76V56.088H108.828V59.76H110.828ZM110.828 56.088C110.828 53.1671 110.003 50.8082 108.182 49.2154L106.865 50.7206C108.117 51.8158 108.828 53.5369 108.828 56.088H110.828ZM108.195 49.227C106.417 47.6156 103.96 46.88 100.972 46.88V48.88C103.647 48.88 105.559 49.5364 106.852 50.709L108.195 49.227ZM100.972 46.88C98.3469 46.88 96.1042 47.4097 94.315 48.5483L95.3888 50.2357C96.7675 49.3583 98.6049 48.88 100.972 48.88V46.88ZM94.3336 48.5368C92.5977 49.5888 91.208 51.0352 90.1676 52.8559L91.9041 53.8481C92.7838 52.3088 93.938 51.1152 95.3702 50.2472L94.3336 48.5368ZM91.6311 52.5484L87.7431 49.6684L86.5526 51.2756L90.4406 54.1556L91.6311 52.5484ZM88.0423 50.9192C88.4774 50.0489 89.0723 49.1856 89.8371 48.3308L88.3466 46.9972C87.4795 47.9664 86.7783 48.9751 86.2534 50.0248L88.0423 50.9192ZM89.8371 48.3308C90.571 47.5106 91.489 46.7852 92.6045 46.1605L91.6273 44.4155C90.3428 45.1348 89.2447 45.9934 88.3466 46.9972L89.8371 48.3308ZM92.6304 46.1455C93.7355 45.4824 95.0098 44.9653 96.4624 44.6021L95.9773 42.6619C94.358 43.0667 92.8963 43.6536 91.6014 44.4305L92.6304 46.1455ZM96.4906 44.5946C97.9248 44.1913 99.536 43.984 101.332 43.984V41.984C99.3837 41.984 97.5869 42.2087 95.9491 42.6693L96.4906 44.5946ZM101.332 43.984C105.532 43.984 108.731 45.0431 111.044 47.0512L112.355 45.5408C109.581 43.1329 105.868 41.984 101.332 41.984V43.984ZM111.051 47.0572C113.384 49.0446 114.588 51.8182 114.588 55.512H116.588C116.588 51.3338 115.199 47.9634 112.348 45.5348L111.051 47.0572ZM114.588 55.512V75.96H116.588V55.512H114.588ZM115.588 76.96H120.772V74.96H115.588V76.96ZM119.772 75.96V81H121.772V75.96H119.772ZM120.772 80H116.812V82H120.772V80ZM99.6759 78.04C101.238 78.04 102.675 77.8638 103.978 77.499L103.438 75.573C102.341 75.8802 101.09 76.04 99.6759 76.04V78.04ZM104.002 77.4918C105.317 77.087 106.481 76.5734 107.482 75.9415L106.414 74.2505C105.59 74.7706 104.594 75.217 103.414 75.5802L104.002 77.4918ZM107.513 75.9213C108.526 75.2281 109.332 74.4052 109.898 73.443L108.174 72.429C107.78 73.0988 107.194 73.7159 106.383 74.2707L107.513 75.9213ZM109.889 73.4574C110.508 72.4454 110.828 71.3543 110.828 70.2H108.828C108.828 70.9657 108.62 71.6986 108.183 72.4145L109.889 73.4574ZM110.828 70.2V64.08H108.828V70.2H110.828ZM109.828 63.08H101.908V65.08H109.828V63.08ZM101.908 63.08C98.4031 63.08 95.6544 63.5588 93.8296 64.6648L94.8662 66.3752C96.2093 65.5612 98.5006 65.08 101.908 65.08V63.08ZM93.8296 64.6648C91.9522 65.8026 90.9719 67.5157 90.9719 69.696H92.9719C92.9719 68.2283 93.5755 67.1574 94.8662 66.3752L93.8296 64.6648ZM90.9719 69.696V71.208H92.9719V69.696H90.9719ZM90.9719 71.208C90.9719 73.3914 91.7537 75.1743 93.3879 76.4L94.5879 74.8C93.5341 74.0097 92.9719 72.8646 92.9719 71.208H90.9719ZM93.4201 76.4232C95.0357 77.5374 97.1549 78.04 99.6759 78.04V76.04C97.3969 76.04 95.7241 75.5826 94.5556 74.7768L93.4201 76.4232ZM94.9239 35.504C93.5299 35.504 92.8057 35.2037 92.463 34.8609L91.0488 36.2751C91.954 37.1803 93.3419 37.504 94.9239 37.504V35.504ZM92.463 34.8609C92.0439 34.4418 91.8199 33.9125 91.8199 33.192H89.8199C89.8199 34.3915 90.2198 35.4462 91.0488 36.2751L92.463 34.8609ZM91.8199 33.192V32.184H89.8199V33.192H91.8199ZM91.8199 32.184C91.8199 31.4635 92.0439 30.9342 92.463 30.5151L91.0488 29.1009C90.2198 29.9298 89.8199 30.9845 89.8199 32.184H91.8199ZM92.463 30.5151C92.8057 30.1723 93.5299 29.872 94.9239 29.872V27.872C93.3419 27.872 91.954 28.1957 91.0488 29.1009L92.463 30.5151ZM94.9239 29.872C96.3179 29.872 97.042 30.1723 97.3848 30.5151L98.799 29.1009C97.8937 28.1957 96.5059 27.872 94.9239 27.872V29.872ZM97.3848 30.5151C97.8038 30.9342 98.0279 31.4635 98.0279 32.184H100.028C100.028 30.9845 99.6279 29.9298 98.799 29.1009L97.3848 30.5151ZM98.0279 32.184V33.192H100.028V32.184H98.0279ZM98.0279 33.192C98.0279 33.9125 97.8038 34.4418 97.3848 34.8609L98.799 36.2751C99.6279 35.4462 100.028 34.3915 100.028 33.192H98.0279ZM97.3848 34.8609C97.042 35.2037 96.3179 35.504 94.9239 35.504V37.504C96.5059 37.504 97.8937 37.1803 98.799 36.2751L97.3848 34.8609ZM108.316 35.504C106.922 35.504 106.198 35.2037 105.855 34.8609L104.441 36.2751C105.346 37.1803 106.734 37.504 108.316 37.504V35.504ZM105.855 34.8609C105.436 34.4418 105.212 33.9125 105.212 33.192H103.212C103.212 34.3915 103.612 35.4462 104.441 36.2751L105.855 34.8609ZM105.212 33.192V32.184H103.212V33.192H105.212ZM105.212 32.184C105.212 31.4635 105.436 30.9342 105.855 30.5151L104.441 29.1009C103.612 29.9298 103.212 30.9845 103.212 32.184H105.212ZM105.855 30.5151C106.198 30.1723 106.922 29.872 108.316 29.872V27.872C106.734 27.872 105.346 28.1957 104.441 29.1009L105.855 30.5151ZM108.316 29.872C109.71 29.872 110.434 30.1723 110.777 30.5151L112.191 29.1009C111.286 28.1957 109.898 27.872 108.316 27.872V29.872ZM110.777 30.5151C111.196 30.9342 111.42 31.4635 111.42 32.184H113.42C113.42 30.9845 113.02 29.9298 112.191 29.1009L110.777 30.5151ZM111.42 32.184V33.192H113.42V32.184H111.42ZM111.42 33.192C111.42 33.9125 111.196 34.4418 110.777 34.8609L112.191 36.2751C113.02 35.4462 113.42 34.3915 113.42 33.192H111.42ZM110.777 34.8609C110.434 35.2037 109.71 35.504 108.316 35.504V37.504C109.898 37.504 111.286 37.1803 112.191 36.2751L110.777 34.8609ZM129.888 76.104V75.104H128.888V76.104H129.888ZM140.76 76.104V77.104H141.76V76.104H140.76ZM140.76 48.744H141.76V47.744H140.76V48.744ZM129.888 48.744H128.888V49.744H129.888V48.744ZM129.888 43.848V42.848H128.888V43.848H129.888ZM146.52 43.848H147.52V42.848H146.52V43.848ZM146.52 53.208H145.52V54.208H146.52V53.208ZM146.88 53.208V54.208H147.651L147.847 53.4617L146.88 53.208ZM151.2 46.368L151.811 47.1593L151.814 47.1573L151.2 46.368ZM164.592 43.848H165.592V42.848H164.592V43.848ZM164.592 49.608V50.608H165.592V49.608H164.592ZM149.544 52.488L148.863 51.7558L148.854 51.7639L149.544 52.488ZM146.52 76.104H145.52V77.104H146.52V76.104ZM160.92 76.104H161.92V75.104H160.92V76.104ZM160.92 81V82H161.92V81H160.92ZM129.888 81H128.888V82H129.888V81ZM129.888 77.104H140.76V75.104H129.888V77.104ZM141.76 76.104V48.744H139.76V76.104H141.76ZM140.76 47.744H129.888V49.744H140.76V47.744ZM130.888 48.744V43.848H128.888V48.744H130.888ZM129.888 44.848H146.52V42.848H129.888V44.848ZM145.52 43.848V53.208H147.52V43.848H145.52ZM146.52 54.208H146.88V52.208H146.52V54.208ZM147.847 53.4617C148.567 50.7172 149.897 48.6384 151.811 47.1593L150.588 45.5767C148.279 47.3616 146.729 49.8428 145.912 52.9543L147.847 53.4617ZM151.814 47.1573C153.764 45.6408 156.27 44.848 159.408 44.848V42.848C155.922 42.848 152.956 43.7352 150.586 45.5786L151.814 47.1573ZM159.408 44.848H164.592V42.848H159.408V44.848ZM163.592 43.848V49.608H165.592V43.848H163.592ZM164.592 48.608H157.608V50.608H164.592V48.608ZM157.608 48.608C154.09 48.608 151.144 49.6341 148.863 51.7558L150.225 53.2202C152.072 51.5019 154.501 50.608 157.608 50.608V48.608ZM148.854 51.7639C146.615 53.8963 145.52 56.6907 145.52 60.048H147.52C147.52 57.1653 148.44 54.9197 150.233 53.2121L148.854 51.7639ZM145.52 60.048V76.104H147.52V60.048H145.52ZM146.52 77.104H160.92V75.104H146.52V77.104ZM159.92 76.104V81H161.92V76.104H159.92ZM160.92 80H129.888V82H160.92V80ZM130.888 81V76.104H128.888V81H130.888ZM182.06 80.496L181.655 81.4107L181.663 81.4141L182.06 80.496ZM176.732 76.608L175.963 77.2482L175.973 77.2598L175.983 77.271L176.732 76.608ZM173.42 70.488L172.467 70.7928L172.469 70.7984L173.42 70.488ZM176.732 48.312L175.974 47.6595L175.972 47.6612L176.732 48.312ZM182.06 44.352L181.663 43.4339L181.655 43.4373L182.06 44.352ZM196.1 44.352L195.695 45.2667L195.703 45.2701L196.1 44.352ZM201.428 48.312L200.659 48.9522L200.669 48.9638L200.679 48.975L201.428 48.312ZM204.812 54.432L203.859 54.7368L203.859 54.7368L204.812 54.432ZM204.812 70.488L205.762 70.7984L205.764 70.7928L204.812 70.488ZM201.428 76.608L200.67 75.9555L200.668 75.9572L201.428 76.608ZM196.1 80.496L195.703 79.5779L195.695 79.5813L196.1 80.496ZM196.892 74.016L197.59 74.7318L197.59 74.7318L196.892 74.016ZM196.892 50.832L197.59 50.1162L197.59 50.1162L196.892 50.832ZM181.34 50.832L180.641 50.1162L180.641 50.1162L181.34 50.832ZM181.34 74.016L180.641 74.7318L180.641 74.7318L181.34 74.016ZM189.116 80.864C186.643 80.864 184.428 80.4294 182.456 79.5779L181.663 81.4141C183.915 82.3866 186.405 82.864 189.116 82.864V80.864ZM182.464 79.5813C180.531 78.7271 178.872 77.5167 177.48 75.945L175.983 77.271C177.567 79.0593 179.461 80.4409 181.655 81.4107L182.464 79.5813ZM177.5 75.9678C176.149 74.3465 175.103 72.4212 174.37 70.1776L172.469 70.7984C173.272 73.2588 174.435 75.4135 175.963 77.2482L177.5 75.9678ZM174.372 70.1832C173.641 67.8977 173.268 65.3148 173.268 62.424H171.268C171.268 65.4852 171.663 68.2783 172.467 70.7928L174.372 70.1832ZM173.268 62.424C173.268 59.5831 173.64 57.0238 174.372 54.7368L172.467 54.1272C171.663 56.6402 171.268 59.4089 171.268 62.424H173.268ZM174.372 54.7368C175.105 52.4463 176.149 50.5284 177.491 48.9628L175.972 47.6612C174.434 49.4556 173.27 51.6177 172.467 54.1272L174.372 54.7368ZM177.489 48.9645C178.882 47.3479 180.537 46.118 182.464 45.2667L181.655 43.4373C179.454 44.41 177.558 45.8201 175.974 47.6595L177.489 48.9645ZM182.456 45.2701C184.428 44.4186 186.643 43.984 189.116 43.984V41.984C186.405 41.984 183.915 42.4614 181.663 43.4339L182.456 45.2701ZM189.116 43.984C191.589 43.984 193.776 44.4187 195.695 45.2667L196.504 43.4373C194.295 42.4613 191.826 41.984 189.116 41.984V43.984ZM195.703 45.2701C197.675 46.1213 199.322 47.3475 200.659 48.9522L202.196 47.6718C200.653 45.8205 198.749 44.4067 196.496 43.4339L195.703 45.2701ZM200.679 48.975C202.064 50.539 203.128 52.4528 203.859 54.7368L205.764 54.1272C204.959 51.6112 203.767 49.445 202.176 47.649L200.679 48.975ZM203.859 54.7368C204.591 57.0238 204.964 59.5831 204.964 62.424H206.964C206.964 59.4089 206.568 56.6402 205.764 54.1272L203.859 54.7368ZM204.964 62.424C204.964 65.3148 204.591 67.8977 203.859 70.1832L205.764 70.7928C206.569 68.2783 206.964 65.4852 206.964 62.424H204.964ZM203.861 70.1776C203.131 72.4147 202.065 74.3359 200.67 75.9555L202.185 77.2605C203.767 75.4241 204.957 73.2653 205.762 70.7984L203.861 70.1776ZM200.668 75.9572C199.331 77.517 197.681 78.7238 195.703 79.5779L196.496 81.4141C198.742 80.4442 200.644 79.059 202.187 77.2588L200.668 75.9572ZM195.695 79.5813C193.776 80.4293 191.589 80.864 189.116 80.864V82.864C191.826 82.864 194.295 82.3867 196.504 81.4107L195.695 79.5813ZM189.116 77.896C192.545 77.896 195.404 76.8647 197.59 74.7318L196.193 73.3002C194.444 75.0073 192.118 75.896 189.116 75.896V77.896ZM197.59 74.7318C199.825 72.5509 200.844 69.2637 200.844 65.088H198.844C198.844 68.9763 197.894 71.6411 196.193 73.3002L197.59 74.7318ZM200.844 65.088V59.76H198.844V65.088H200.844ZM200.844 59.76C200.844 55.5843 199.825 52.2971 197.59 50.1162L196.193 51.5478C197.894 53.2069 198.844 55.8717 198.844 59.76H200.844ZM197.59 50.1162C195.404 47.9833 192.545 46.952 189.116 46.952V48.952C192.118 48.952 194.444 49.8407 196.193 51.5478L197.59 50.1162ZM189.116 46.952C185.686 46.952 182.828 47.9833 180.641 50.1162L182.038 51.5478C183.788 49.8407 186.113 48.952 189.116 48.952V46.952ZM180.641 50.1162C178.406 52.2971 177.388 55.5843 177.388 59.76H179.388C179.388 55.8717 180.337 53.2069 182.038 51.5478L180.641 50.1162ZM177.388 59.76V65.088H179.388V59.76H177.388ZM177.388 65.088C177.388 69.2637 178.406 72.5509 180.641 74.7318L182.038 73.3002C180.337 71.6411 179.388 68.9763 179.388 65.088H177.388ZM180.641 74.7318C182.828 76.8647 185.686 77.896 189.116 77.896V75.896C186.113 75.896 183.788 75.0073 182.038 73.3002L180.641 74.7318ZM217.528 43.848V42.848H216.528V43.848H217.528ZM223.288 43.848H224.288V42.848H223.288V43.848ZM223.288 49.896H222.288V50.896H223.288V49.896ZM223.576 49.896V50.896H224.182L224.462 50.3579L223.576 49.896ZM245.68 48.096L244.878 48.6942L244.884 48.7014L245.68 48.096ZM245.68 76.752L244.884 76.1466L244.878 76.1538L245.68 76.752ZM223.576 74.952L224.462 74.4901L224.182 73.952H223.576V74.952ZM223.288 74.952V73.952H222.288V74.952H223.288ZM223.288 95.4V96.4H224.288V95.4H223.288ZM217.528 95.4H216.528V96.4H217.528V95.4ZM240.568 73.728L239.827 73.0562L239.826 73.0571L240.568 73.728ZM240.568 51.192L239.818 51.8542L239.826 51.8634L239.835 51.8724L240.568 51.192ZM229.12 48.6L229.4 49.56L229.4 49.56L229.12 48.6ZM226.096 50.112L226.681 50.9227L226.695 50.9123L226.709 50.9014L226.096 50.112ZM224.008 52.488L223.131 52.0061L223.127 52.0141L223.123 52.0223L224.008 52.488ZM224.008 72.432L223.113 72.8792L223.127 72.9066L223.142 72.933L224.008 72.432ZM226.096 74.808L225.482 75.5974L225.496 75.6083L225.51 75.6187L226.096 74.808ZM229.12 76.248L228.84 77.208L228.84 77.208L229.12 76.248ZM217.528 44.848H223.288V42.848H217.528V44.848ZM222.288 43.848V49.896H224.288V43.848H222.288ZM223.288 50.896H223.576V48.896H223.288V50.896ZM224.462 50.3579C225.592 48.1894 227.028 46.6104 228.754 45.5681C230.481 44.5255 232.558 43.984 235.024 43.984V41.984C232.257 41.984 229.81 42.5945 227.721 43.8559C225.631 45.1176 223.959 46.9946 222.689 49.4341L224.462 50.3579ZM235.024 43.984C239.294 43.984 242.538 45.5596 244.878 48.6942L246.481 47.4978C243.733 43.8164 239.873 41.984 235.024 41.984V43.984ZM244.884 48.7014C247.297 51.874 248.568 56.4066 248.568 62.424H250.568C250.568 56.1534 249.246 51.134 246.475 47.4906L244.884 48.7014ZM248.568 62.424C248.568 68.4414 247.297 72.974 244.884 76.1466L246.475 77.3574C249.246 73.714 250.568 68.6946 250.568 62.424H248.568ZM244.878 76.1538C242.538 79.2884 239.294 80.864 235.024 80.864V82.864C239.873 82.864 243.733 81.0316 246.481 77.3502L244.878 76.1538ZM235.024 80.864C232.558 80.864 230.481 80.3225 228.754 79.2799C227.028 78.2376 225.592 76.6586 224.462 74.4901L222.689 75.4139C223.959 77.8534 225.631 79.7304 227.721 80.9921C229.81 82.2535 232.257 82.864 235.024 82.864V80.864ZM223.576 73.952H223.288V75.952H223.576V73.952ZM222.288 74.952V95.4H224.288V74.952H222.288ZM223.288 94.4H217.528V96.4H223.288V94.4ZM218.528 95.4V43.848H216.528V95.4H218.528ZM232.792 77.752C236.362 77.752 239.252 76.6724 241.309 74.3989L239.826 73.0571C238.235 74.8156 235.941 75.752 232.792 75.752V77.752ZM241.308 74.3998C243.38 72.1155 244.376 69.1465 244.376 65.592H242.376C242.376 68.7575 241.499 71.2125 239.827 73.0562L241.308 74.3998ZM244.376 65.592V59.256H242.376V65.592H244.376ZM244.376 59.256C244.376 55.7024 243.38 52.7515 241.3 50.5115L239.835 51.8724C241.499 53.6645 242.376 56.0896 242.376 59.256H244.376ZM241.317 50.5298C239.262 48.2045 236.37 47.096 232.792 47.096V49.096C235.933 49.096 238.225 50.0514 239.818 51.8542L241.317 50.5298ZM232.792 47.096C231.408 47.096 230.089 47.2754 228.84 47.64L229.4 49.56C230.454 49.2526 231.583 49.096 232.792 49.096V47.096ZM228.84 47.64C227.578 48.0079 226.454 48.5661 225.482 49.3226L226.709 50.9014C227.465 50.3139 228.357 49.8641 229.4 49.56L228.84 47.64ZM225.51 49.3013C224.523 50.0145 223.729 50.9201 223.131 52.0061L224.884 52.9699C225.342 52.1359 225.94 51.4575 226.681 50.9227L225.51 49.3013ZM223.123 52.0223C222.553 53.1051 222.288 54.3516 222.288 55.728H224.288C224.288 54.6084 224.502 53.6949 224.892 52.9537L223.123 52.0223ZM222.288 55.728V69.12H224.288V55.728H222.288ZM222.288 69.12C222.288 70.498 222.553 71.7594 223.113 72.8792L224.902 71.9848C224.502 71.1846 224.288 70.238 224.288 69.12H222.288ZM223.142 72.933C223.737 73.9607 224.52 74.8494 225.482 75.5974L226.709 74.0186C225.943 73.4226 225.334 72.7273 224.873 71.931L223.142 72.933ZM225.51 75.6187C226.477 76.3174 227.592 76.844 228.84 77.208L229.4 75.288C228.343 74.98 227.442 74.5466 226.681 73.9973L225.51 75.6187ZM228.84 77.208C230.089 77.5726 231.408 77.752 232.792 77.752V75.752C231.583 75.752 230.454 75.5954 229.4 75.288L228.84 77.208ZM259.619 76.104V75.104H258.619V76.104H259.619ZM272.579 76.104V77.104H273.579V76.104H272.579ZM272.579 32.616H273.579V31.616H272.579V32.616ZM259.619 32.616H258.619V33.616H259.619V32.616ZM259.619 27.72V26.72H258.619V27.72H259.619ZM278.339 27.72H279.339V26.72H278.339V27.72ZM278.339 76.104H277.339V77.104H278.339V76.104ZM291.299 76.104H292.299V75.104H291.299V76.104ZM291.299 81V82H292.299V81H291.299ZM259.619 81H258.619V82H259.619V81ZM259.619 77.104H272.579V75.104H259.619V77.104ZM273.579 76.104V32.616H271.579V76.104H273.579ZM272.579 31.616H259.619V33.616H272.579V31.616ZM260.619 32.616V27.72H258.619V32.616H260.619ZM259.619 28.72H278.339V26.72H259.619V28.72ZM277.339 27.72V76.104H279.339V27.72H277.339ZM278.339 77.104H291.299V75.104H278.339V77.104ZM290.299 76.104V81H292.299V76.104H290.299ZM291.299 80H259.619V82H291.299V80ZM260.619 81V76.104H258.619V81H260.619ZM327.847 79.272L328.615 78.6318L328.615 78.6318L327.847 79.272ZM326.047 74.952L327.038 74.8144L326.918 73.952H326.047V74.952ZM325.687 74.952V73.952H324.996L324.752 74.5986L325.687 74.952ZM321.727 80.064L322.287 80.8926L322.292 80.8893L321.727 80.064ZM305.239 78.84L305.898 78.0874L305.898 78.0874L305.239 78.84ZM305.527 62.568L304.935 61.7625L304.927 61.768L305.527 62.568ZM325.687 59.76V60.76H326.687V59.76H325.687ZM323.383 49.968L322.712 50.709L322.718 50.7148L322.725 50.7206L323.383 49.968ZM310.711 49.392L311.23 50.2472L311.239 50.2415L311.248 50.2357L310.711 49.392ZM306.895 53.352L306.3 54.1556L307.205 54.8258L307.763 53.8481L306.895 53.352ZM303.007 50.472L302.113 50.0248L301.737 50.7758L302.412 51.2756L303.007 50.472ZM304.951 47.664L305.696 48.3308L305.696 48.3308L304.951 47.664ZM307.975 45.288L308.464 46.1605L308.477 46.1532L308.49 46.1455L307.975 45.288ZM312.079 43.632L312.322 44.6021L312.336 44.5986L312.35 44.5946L312.079 43.632ZM327.559 46.296L326.904 47.0512L326.911 47.0572L327.559 46.296ZM331.447 75.96H330.447V76.96H331.447V75.96ZM336.631 75.96H337.631V74.96H336.631V75.96ZM336.631 81V82H337.631V81H336.631ZM319.567 76.536L319.837 77.499L319.849 77.4955L319.861 77.4918L319.567 76.536ZM322.807 75.096L323.341 75.9415L323.357 75.9317L323.372 75.9213L322.807 75.096ZM324.895 72.936L324.042 72.4145L324.038 72.4217L324.033 72.429L324.895 72.936ZM325.687 64.08H326.687V63.08H325.687V64.08ZM310.207 65.52L310.726 66.3752L310.726 66.3752L310.207 65.52ZM309.847 75.6L309.247 76.4L309.263 76.4119L309.28 76.4232L309.847 75.6ZM332.671 80C330.56 80 329.306 79.4603 328.615 78.6318L327.079 79.9122C328.309 81.3877 330.271 82 332.671 82V80ZM328.615 78.6318C327.793 77.6454 327.256 76.3882 327.038 74.8144L325.057 75.0896C325.318 76.9718 325.981 78.5946 327.079 79.9122L328.615 78.6318ZM326.047 73.952H325.687V75.952H326.047V73.952ZM324.752 74.5986C324.005 76.5761 322.81 78.1117 321.163 79.2387L322.292 80.8893C324.293 79.5203 325.738 77.6479 326.623 75.3054L324.752 74.5986ZM321.167 79.2354C319.612 80.2865 317.431 80.864 314.527 80.864V82.864C317.672 82.864 320.291 82.2415 322.287 80.8926L321.167 79.2354ZM314.527 80.864C310.814 80.864 307.974 79.9045 305.898 78.0874L304.581 79.5926C307.112 81.8075 310.464 82.864 314.527 82.864V80.864ZM305.898 78.0874C303.843 76.2898 302.783 73.8219 302.783 70.56H300.783C300.783 74.3061 302.027 77.3582 304.581 79.5926L305.898 78.0874ZM302.783 70.56C302.783 67.3797 303.913 65.0289 306.127 63.368L304.927 61.768C302.15 63.8511 300.783 66.8283 300.783 70.56H302.783ZM306.12 63.3734C308.403 61.6933 312.218 60.76 317.767 60.76V58.76C312.084 58.76 307.739 59.6987 304.935 61.7626L306.12 63.3734ZM317.767 60.76H325.687V58.76H317.767V60.76ZM326.687 59.76V56.088H324.687V59.76H326.687ZM326.687 56.088C326.687 53.1671 325.862 50.8082 324.042 49.2154L322.725 50.7206C323.976 51.8158 324.687 53.5369 324.687 56.088H326.687ZM324.055 49.227C322.277 47.6156 319.82 46.88 316.831 46.88V48.88C319.507 48.88 321.418 49.5364 322.712 50.709L324.055 49.227ZM316.831 46.88C314.206 46.88 311.964 47.4097 310.174 48.5483L311.248 50.2357C312.627 49.3583 314.464 48.88 316.831 48.88V46.88ZM310.193 48.5368C308.457 49.5888 307.067 51.0352 306.027 52.8559L307.763 53.8481C308.643 52.3088 309.797 51.1152 311.23 50.2472L310.193 48.5368ZM307.49 52.5484L303.602 49.6684L302.412 51.2756L306.3 54.1556L307.49 52.5484ZM303.902 50.9192C304.337 50.0489 304.932 49.1856 305.696 48.3308L304.206 46.9972C303.339 47.9664 302.638 48.9751 302.113 50.0248L303.902 50.9192ZM305.696 48.3308C306.43 47.5106 307.348 46.7852 308.464 46.1605L307.487 44.4155C306.202 45.1348 305.104 45.9934 304.206 46.9972L305.696 48.3308ZM308.49 46.1455C309.595 45.4824 310.869 44.9653 312.322 44.6021L311.837 42.6619C310.217 43.0667 308.756 43.6536 307.461 44.4305L308.49 46.1455ZM312.35 44.5946C313.784 44.1913 315.395 43.984 317.191 43.984V41.984C315.243 41.984 313.446 42.2087 311.809 42.6693L312.35 44.5946ZM317.191 43.984C321.391 43.984 324.59 45.0431 326.904 47.0512L328.215 45.5408C325.44 43.1329 321.727 41.984 317.191 41.984V43.984ZM326.911 47.0572C329.244 49.0446 330.447 51.8182 330.447 55.512H332.447C332.447 51.3338 331.059 47.9634 328.208 45.5348L326.911 47.0572ZM330.447 55.512V75.96H332.447V55.512H330.447ZM331.447 76.96H336.631V74.96H331.447V76.96ZM335.631 75.96V81H337.631V75.96H335.631ZM336.631 80H332.671V82H336.631V80ZM315.535 78.04C317.097 78.04 318.534 77.8638 319.837 77.499L319.298 75.573C318.2 75.8802 316.949 76.04 315.535 76.04V78.04ZM319.861 77.4918C321.177 77.087 322.341 76.5734 323.341 75.9415L322.273 74.2505C321.45 74.7706 320.454 75.217 319.273 75.5802L319.861 77.4918ZM323.372 75.9213C324.385 75.2281 325.191 74.4052 325.757 73.443L324.033 72.429C323.639 73.0988 323.053 73.7159 322.243 74.2707L323.372 75.9213ZM325.749 73.4574C326.367 72.4454 326.687 71.3543 326.687 70.2H324.687C324.687 70.9657 324.48 71.6986 324.042 72.4145L325.749 73.4574ZM326.687 70.2V64.08H324.687V70.2H326.687ZM325.687 63.08H317.767V65.08H325.687V63.08ZM317.767 63.08C314.262 63.08 311.514 63.5588 309.689 64.6648L310.726 66.3752C312.069 65.5612 314.36 65.08 317.767 65.08V63.08ZM309.689 64.6648C307.812 65.8026 306.831 67.5157 306.831 69.696H308.831C308.831 68.2283 309.435 67.1574 310.726 66.3752L309.689 64.6648ZM306.831 69.696V71.208H308.831V69.696H306.831ZM306.831 71.208C306.831 73.3914 307.613 75.1743 309.247 76.4L310.447 74.8C309.393 74.0097 308.831 72.8646 308.831 71.208H306.831ZM309.28 76.4232C310.895 77.5374 313.014 78.04 315.535 78.04V76.04C313.256 76.04 311.583 75.5826 310.415 74.7768L309.28 76.4232ZM357.339 78.624L356.565 79.2572L356.571 79.2642L356.577 79.271L357.339 78.624ZM355.395 48.744H356.395V47.744H355.395V48.744ZM343.011 48.744H342.011V49.744H343.011V48.744ZM343.011 43.848V42.848H342.011V43.848H343.011ZM354.819 43.128L354.112 42.4209L354.112 42.4209L354.819 43.128ZM355.611 30.744V29.744H354.611V30.744H355.611ZM361.155 30.744H362.155V29.744H361.155V30.744ZM361.155 43.848H360.155V44.848H361.155V43.848ZM378.075 43.848H379.075V42.848H378.075V43.848ZM378.075 48.744V49.744H379.075V48.744H378.075ZM361.155 48.744V47.744H360.155V48.744H361.155ZM361.155 76.104H360.155V77.104H361.155V76.104ZM378.075 76.104H379.075V75.104H378.075V76.104ZM378.075 81V82H379.075V81H378.075ZM363.603 80C360.952 80 359.193 79.2637 358.102 77.977L356.577 79.271C358.173 81.1523 360.59 82 363.603 82V80ZM358.113 77.9908C356.993 76.6222 356.395 74.8216 356.395 72.504H354.395C354.395 75.1784 355.093 77.4578 356.565 79.2572L358.113 77.9908ZM356.395 72.504V48.744H354.395V72.504H356.395ZM355.395 47.744H343.011V49.744H355.395V47.744ZM344.011 48.744V43.848H342.011V48.744H344.011ZM343.011 44.848H352.227V42.848H343.011V44.848ZM352.227 44.848C353.539 44.848 354.753 44.6083 355.526 43.8351L354.112 42.4209C353.925 42.6077 353.411 42.848 352.227 42.848V44.848ZM355.526 43.8351C356.334 43.0272 356.611 41.8091 356.611 40.464H354.611C354.611 41.6149 354.36 42.1728 354.112 42.4209L355.526 43.8351ZM356.611 40.464V30.744H354.611V40.464H356.611ZM355.611 31.744H361.155V29.744H355.611V31.744ZM360.155 30.744V43.848H362.155V30.744H360.155ZM361.155 44.848H378.075V42.848H361.155V44.848ZM377.075 43.848V48.744H379.075V43.848H377.075ZM378.075 47.744H361.155V49.744H378.075V47.744ZM360.155 48.744V76.104H362.155V48.744H360.155ZM361.155 77.104H378.075V75.104H361.155V77.104ZM377.075 76.104V81H379.075V76.104H377.075ZM378.075 80H363.603V82H378.075V80ZM400.511 78.624L399.737 79.2572L399.743 79.2642L399.748 79.271L400.511 78.624ZM398.567 48.744H399.567V47.744H398.567V48.744ZM386.183 48.744H385.183V49.744H386.183V48.744ZM386.183 43.848V42.848H385.183V43.848H386.183ZM397.991 43.128L397.284 42.4209L397.284 42.4209L397.991 43.128ZM398.783 30.744V29.744H397.783V30.744H398.783ZM404.327 30.744H405.327V29.744H404.327V30.744ZM404.327 43.848H403.327V44.848H404.327V43.848ZM421.247 43.848H422.247V42.848H421.247V43.848ZM421.247 48.744V49.744H422.247V48.744H421.247ZM404.327 48.744V47.744H403.327V48.744H404.327ZM404.327 76.104H403.327V77.104H404.327V76.104ZM421.247 76.104H422.247V75.104H421.247V76.104ZM421.247 81V82H422.247V81H421.247ZM406.775 80C404.124 80 402.365 79.2637 401.274 77.977L399.748 79.271C401.345 81.1523 403.762 82 406.775 82V80ZM401.285 77.9908C400.165 76.6222 399.567 74.8216 399.567 72.504H397.567C397.567 75.1784 398.265 77.4578 399.737 79.2572L401.285 77.9908ZM399.567 72.504V48.744H397.567V72.504H399.567ZM398.567 47.744H386.183V49.744H398.567V47.744ZM387.183 48.744V43.848H385.183V48.744H387.183ZM386.183 44.848H395.399V42.848H386.183V44.848ZM395.399 44.848C396.711 44.848 397.925 44.6083 398.698 43.8351L397.284 42.4209C397.097 42.6077 396.583 42.848 395.399 42.848V44.848ZM398.698 43.8351C399.506 43.0272 399.783 41.8091 399.783 40.464H397.783C397.783 41.6149 397.532 42.1728 397.284 42.4209L398.698 43.8351ZM399.783 40.464V30.744H397.783V40.464H399.783ZM398.783 31.744H404.327V29.744H398.783V31.744ZM403.327 30.744V43.848H405.327V30.744H403.327ZM404.327 44.848H421.247V42.848H404.327V44.848ZM420.247 43.848V48.744H422.247V43.848H420.247ZM421.247 47.744H404.327V49.744H421.247V47.744ZM403.327 48.744V76.104H405.327V48.744H403.327ZM404.327 77.104H421.247V75.104H404.327V77.104ZM420.247 76.104V81H422.247V76.104H420.247ZM421.247 80H406.775V82H421.247V80ZM476.199 81H475.199V82H476.199V81ZM476.199 30.744V29.744H475.199V30.744H476.199ZM507.879 30.744H508.879V29.744H507.879V30.744ZM507.879 36V37H508.879V36H507.879ZM482.247 36V35H481.247V36H482.247ZM482.247 52.92H481.247V53.92H482.247V52.92ZM505.719 52.92H506.719V51.92H505.719V52.92ZM505.719 58.176V59.176H506.719V58.176H505.719ZM482.247 58.176V57.176H481.247V58.176H482.247ZM482.247 81V82H483.247V81H482.247ZM477.199 81V30.744H475.199V81H477.199ZM476.199 31.744H507.879V29.744H476.199V31.744ZM506.879 30.744V36H508.879V30.744H506.879ZM507.879 35H482.247V37H507.879V35ZM481.247 36V52.92H483.247V36H481.247ZM482.247 53.92H505.719V51.92H482.247V53.92ZM504.719 52.92V58.176H506.719V52.92H504.719ZM505.719 57.176H482.247V59.176H505.719V57.176ZM481.247 58.176V81H483.247V58.176H481.247ZM482.247 80H476.199V82H482.247V80ZM527.435 80.496L527.03 81.4107L527.038 81.4141L527.435 80.496ZM522.107 76.608L521.338 77.2482L521.348 77.2598L521.358 77.271L522.107 76.608ZM518.795 70.488L517.842 70.7928L517.844 70.7984L518.795 70.488ZM522.107 48.312L521.349 47.6595L521.347 47.6612L522.107 48.312ZM527.435 44.352L527.038 43.4339L527.03 43.4373L527.435 44.352ZM541.475 44.352L541.07 45.2667L541.078 45.2701L541.475 44.352ZM546.803 48.312L546.034 48.9522L546.044 48.9638L546.054 48.975L546.803 48.312ZM550.187 54.432L549.234 54.7368L549.234 54.7368L550.187 54.432ZM550.187 70.488L551.137 70.7984L551.139 70.7928L550.187 70.488ZM546.803 76.608L546.045 75.9555L546.043 75.9572L546.803 76.608ZM541.475 80.496L541.078 79.5779L541.07 79.5813L541.475 80.496ZM542.267 74.016L542.965 74.7318L542.965 74.7318L542.267 74.016ZM542.267 50.832L542.965 50.1162L542.965 50.1162L542.267 50.832ZM526.715 50.832L526.016 50.1162L526.016 50.1162L526.715 50.832ZM526.715 74.016L526.016 74.7318L526.016 74.7318L526.715 74.016ZM534.491 80.864C532.018 80.864 529.803 80.4294 527.831 79.5779L527.038 81.4141C529.29 82.3866 531.78 82.864 534.491 82.864V80.864ZM527.839 79.5813C525.906 78.7271 524.247 77.5167 522.855 75.945L521.358 77.271C522.942 79.0593 524.836 80.4409 527.03 81.4107L527.839 79.5813ZM522.875 75.9678C521.524 74.3465 520.478 72.4212 519.745 70.1776L517.844 70.7984C518.647 73.2588 519.81 75.4135 521.338 77.2482L522.875 75.9678ZM519.747 70.1832C519.016 67.8977 518.643 65.3148 518.643 62.424H516.643C516.643 65.4852 517.038 68.2783 517.842 70.7928L519.747 70.1832ZM518.643 62.424C518.643 59.5831 519.015 57.0238 519.747 54.7368L517.842 54.1272C517.038 56.6402 516.643 59.4089 516.643 62.424H518.643ZM519.747 54.7368C520.48 52.4463 521.524 50.5284 522.866 48.9628L521.347 47.6612C519.809 49.4556 518.645 51.6177 517.842 54.1272L519.747 54.7368ZM522.864 48.9645C524.257 47.3479 525.912 46.118 527.839 45.2667L527.03 43.4373C524.829 44.41 522.933 45.8201 521.349 47.6595L522.864 48.9645ZM527.831 45.2701C529.803 44.4186 532.018 43.984 534.491 43.984V41.984C531.78 41.984 529.29 42.4614 527.038 43.4339L527.831 45.2701ZM534.491 43.984C536.964 43.984 539.151 44.4187 541.07 45.2667L541.879 43.4373C539.67 42.4613 537.201 41.984 534.491 41.984V43.984ZM541.078 45.2701C543.05 46.1213 544.697 47.3475 546.034 48.9522L547.571 47.6718C546.028 45.8205 544.124 44.4067 541.871 43.4339L541.078 45.2701ZM546.054 48.975C547.439 50.539 548.503 52.4528 549.234 54.7368L551.139 54.1272C550.334 51.6112 549.142 49.445 547.551 47.649L546.054 48.975ZM549.234 54.7368C549.966 57.0238 550.339 59.5831 550.339 62.424H552.339C552.339 59.4089 551.943 56.6402 551.139 54.1272L549.234 54.7368ZM550.339 62.424C550.339 65.3148 549.966 67.8977 549.234 70.1832L551.139 70.7928C551.944 68.2783 552.339 65.4852 552.339 62.424H550.339ZM549.236 70.1776C548.506 72.4147 547.44 74.3359 546.045 75.9555L547.56 77.2605C549.142 75.4241 550.332 73.2653 551.137 70.7984L549.236 70.1776ZM546.043 75.9572C544.706 77.517 543.056 78.7238 541.078 79.5779L541.871 81.4141C544.117 80.4442 546.019 79.059 547.562 77.2588L546.043 75.9572ZM541.07 79.5813C539.151 80.4293 536.964 80.864 534.491 80.864V82.864C537.201 82.864 539.67 82.3867 541.879 81.4107L541.07 79.5813ZM534.491 77.896C537.92 77.896 540.779 76.8647 542.965 74.7318L541.568 73.3002C539.819 75.0073 537.493 75.896 534.491 75.896V77.896ZM542.965 74.7318C545.2 72.5509 546.219 69.2637 546.219 65.088H544.219C544.219 68.9763 543.269 71.6411 541.568 73.3002L542.965 74.7318ZM546.219 65.088V59.76H544.219V65.088H546.219ZM546.219 59.76C546.219 55.5843 545.2 52.2971 542.965 50.1162L541.568 51.5478C543.269 53.2069 544.219 55.8717 544.219 59.76H546.219ZM542.965 50.1162C540.779 47.9833 537.92 46.952 534.491 46.952V48.952C537.493 48.952 539.819 49.8407 541.568 51.5478L542.965 50.1162ZM534.491 46.952C531.061 46.952 528.203 47.9833 526.016 50.1162L527.413 51.5478C529.163 49.8407 531.488 48.952 534.491 48.952V46.952ZM526.016 50.1162C523.781 52.2971 522.763 55.5843 522.763 59.76H524.763C524.763 55.8717 525.712 53.2069 527.413 51.5478L526.016 50.1162ZM522.763 59.76V65.088H524.763V59.76H522.763ZM522.763 65.088C522.763 69.2637 523.781 72.5509 526.016 74.7318L527.413 73.3002C525.712 71.6411 524.763 68.9763 524.763 65.088H522.763ZM526.016 74.7318C528.203 76.8647 531.061 77.896 534.491 77.896V75.896C531.488 75.896 529.163 75.0073 527.413 73.3002L526.016 74.7318ZM561.607 76.104V75.104H560.607V76.104H561.607ZM572.479 76.104V77.104H573.479V76.104H572.479ZM572.479 48.744H573.479V47.744H572.479V48.744ZM561.607 48.744H560.607V49.744H561.607V48.744ZM561.607 43.848V42.848H560.607V43.848H561.607ZM578.239 43.848H579.239V42.848H578.239V43.848ZM578.239 53.208H577.239V54.208H578.239V53.208ZM578.599 53.208V54.208H579.37L579.566 53.4617L578.599 53.208ZM582.919 46.368L583.53 47.1593L583.532 47.1573L582.919 46.368ZM596.311 43.848H597.311V42.848H596.311V43.848ZM596.311 49.608V50.608H597.311V49.608H596.311ZM581.263 52.488L580.581 51.7558L580.573 51.7639L581.263 52.488ZM578.239 76.104H577.239V77.104H578.239V76.104ZM592.639 76.104H593.639V75.104H592.639V76.104ZM592.639 81V82H593.639V81H592.639ZM561.607 81H560.607V82H561.607V81ZM561.607 77.104H572.479V75.104H561.607V77.104ZM573.479 76.104V48.744H571.479V76.104H573.479ZM572.479 47.744H561.607V49.744H572.479V47.744ZM562.607 48.744V43.848H560.607V48.744H562.607ZM561.607 44.848H578.239V42.848H561.607V44.848ZM577.239 43.848V53.208H579.239V43.848H577.239ZM578.239 54.208H578.599V52.208H578.239V54.208ZM579.566 53.4617C580.286 50.7172 581.616 48.6384 583.53 47.1593L582.307 45.5767C579.997 47.3616 578.447 49.8428 577.631 52.9543L579.566 53.4617ZM583.532 47.1573C585.482 45.6408 587.989 44.848 591.127 44.848V42.848C587.64 42.848 584.675 43.7352 582.305 45.5786L583.532 47.1573ZM591.127 44.848H596.311V42.848H591.127V44.848ZM595.311 43.848V49.608H597.311V43.848H595.311ZM596.311 48.608H589.327V50.608H596.311V48.608ZM589.327 48.608C585.809 48.608 582.862 49.6341 580.581 51.7558L581.944 53.2202C583.791 51.5019 586.22 50.608 589.327 50.608V48.608ZM580.573 51.7639C578.334 53.8963 577.239 56.6907 577.239 60.048H579.239C579.239 57.1653 580.159 54.9197 581.952 53.2121L580.573 51.7639ZM577.239 60.048V76.104H579.239V60.048H577.239ZM578.239 77.104H592.639V75.104H578.239V77.104ZM591.639 76.104V81H593.639V76.104H591.639ZM592.639 80H561.607V82H592.639V80ZM562.607 81V76.104H560.607V81H562.607ZM603.122 81H602.122V82H603.122V81ZM603.122 43.848V42.848H602.122V43.848H603.122ZM608.45 43.848H609.45V42.848H608.45V43.848ZM608.45 48.168H607.45V49.168H608.45V48.168ZM608.738 48.168V49.168H609.415L609.667 48.5394L608.738 48.168ZM611.186 44.496L610.496 43.7726L610.496 43.7726L611.186 44.496ZM620.69 44.64L619.968 45.3312L619.975 45.3393L619.983 45.3471L620.69 44.64ZM622.634 48.816L621.644 48.9536L621.764 49.816H622.634V48.816ZM622.85 48.816V49.816H623.527L623.779 49.1874L622.85 48.816ZM625.73 44.64L626.393 45.389L626.393 45.389L625.73 44.64ZM636.962 46.152L636.06 46.5827L636.064 46.591L636.068 46.5992L636.962 46.152ZM638.546 81V82H639.546V81H638.546ZM633.218 81H632.218V82H633.218V81ZM632.21 49.608L631.316 50.0552L631.326 50.0762L631.338 50.0966L632.21 49.608ZM624.938 49.248L625.645 49.9551L625.654 49.9465L625.663 49.9377L624.938 49.248ZM623.498 81V82H624.498V81H623.498ZM618.17 81H617.17V82H618.17V81ZM617.162 49.608L616.268 50.0552L616.278 50.0762L616.29 50.0966L617.162 49.608ZM609.89 49.248L610.597 49.9551L609.89 49.248ZM608.45 81V82H609.45V81H608.45ZM604.122 81V43.848H602.122V81H604.122ZM603.122 44.848H608.45V42.848H603.122V44.848ZM607.45 43.848V48.168H609.45V43.848H607.45ZM608.45 49.168H608.738V47.168H608.45V49.168ZM609.667 48.5394C610.193 47.2239 610.931 46.1223 611.877 45.2194L610.496 43.7726C609.33 44.8857 608.436 46.232 607.81 47.7966L609.667 48.5394ZM611.877 45.2194C612.682 44.4511 613.953 43.984 615.866 43.984V41.984C613.652 41.984 611.803 42.5249 610.496 43.7726L611.877 45.2194ZM615.866 43.984C617.868 43.984 619.167 44.4945 619.968 45.3312L621.413 43.9488C620.101 42.5775 618.184 41.984 615.866 41.984V43.984ZM619.983 45.3471C620.86 46.2243 621.429 47.4036 621.644 48.9536L623.625 48.6784C623.36 46.7724 622.632 45.1677 621.397 43.9329L619.983 45.3471ZM622.634 49.816H622.85V47.816H622.634V49.816ZM623.779 49.1874C624.398 47.6396 625.272 46.3809 626.393 45.389L625.068 43.891C623.693 45.1071 622.647 46.6324 621.922 48.4446L623.779 49.1874ZM626.393 45.389C627.406 44.4932 628.87 43.984 630.914 43.984V41.984C628.543 41.984 626.551 42.5788 625.068 43.891L626.393 45.389ZM630.914 43.984C633.687 43.984 635.269 44.9253 636.06 46.5827L637.865 45.7213C636.64 43.1547 634.189 41.984 630.914 41.984V43.984ZM636.068 46.5992C637.023 48.5092 637.546 51.3524 637.546 55.224H639.546C639.546 51.2236 639.014 48.0188 637.857 45.7048L636.068 46.5992ZM637.546 55.224V81H639.546V55.224H637.546ZM638.546 80H633.218V82H638.546V80ZM634.218 81V56.16H632.218V81H634.218ZM634.218 56.16C634.218 52.9898 633.894 50.5676 633.083 49.1194L631.338 50.0966C631.871 51.0484 632.218 52.9942 632.218 56.16H634.218ZM633.105 49.1608C632.268 47.4868 630.681 46.736 628.682 46.736V48.736C630.14 48.736 630.905 49.2332 631.316 50.0552L633.105 49.1608ZM628.682 46.736C626.904 46.736 625.384 47.3306 624.214 48.5583L625.663 49.9377C626.413 49.1494 627.389 48.736 628.682 48.736V46.736ZM624.231 48.5409C623.01 49.7626 622.498 51.5584 622.498 53.712H624.498C624.498 51.8336 624.947 50.6534 625.645 49.9551L624.231 48.5409ZM622.498 53.712V81H624.498V53.712H622.498ZM623.498 80H618.17V82H623.498V80ZM619.17 81V56.16H617.17V81H619.17ZM619.17 56.16C619.17 52.9898 618.846 50.5676 618.035 49.1194L616.29 50.0966C616.823 51.0484 617.17 52.9942 617.17 56.16H619.17ZM618.057 49.1608C617.659 48.3659 617.075 47.7409 616.307 47.3247C615.549 46.9142 614.667 46.736 613.706 46.736V48.736C614.426 48.736 614.96 48.8698 615.354 49.0833C615.738 49.2911 616.041 49.6021 616.268 50.0552L618.057 49.1608ZM613.706 46.736C611.928 46.736 610.394 47.3299 609.183 48.5409L610.597 49.9551C611.402 49.1501 612.413 48.736 613.706 48.736V46.736ZM609.183 48.5409C607.962 49.7626 607.45 51.5584 607.45 53.712H609.45C609.45 51.8336 609.899 50.6534 610.597 49.9551L609.183 48.5409ZM607.45 53.712V81H609.45V53.712H607.45ZM608.45 80H603.122V82H608.45V80ZM657.382 80.496L656.986 81.4141L656.993 81.4172L657.382 80.496ZM651.91 76.608L651.152 77.2605L651.162 77.2718L651.172 77.2828L651.91 76.608ZM648.454 70.488L647.507 70.8099L647.509 70.8158L648.454 70.488ZM648.454 54.432L647.513 54.0933L647.51 54.1017L647.507 54.1101L648.454 54.432ZM651.982 48.312L652.731 48.9751L652.74 48.9645L651.982 48.312ZM657.31 44.352L656.914 43.4339L656.906 43.4373L657.31 44.352ZM671.062 44.352L670.65 45.2631L670.658 45.2667L671.062 44.352ZM676.318 48.168L675.568 48.8296L675.573 48.8352L675.578 48.8407L676.318 48.168ZM679.63 53.856L678.686 54.1845L678.686 54.1845L679.63 53.856ZM680.782 63.864V64.864H681.782V63.864H680.782ZM653.278 63.864V62.864H652.278V63.864H653.278ZM654.07 70.128L653.135 70.4827L653.135 70.4827L654.07 70.128ZM656.302 73.728L655.578 74.4177L655.587 74.4265L655.595 74.4351L656.302 73.728ZM659.902 76.104L659.52 77.028L659.539 77.0358L659.558 77.0429L659.902 76.104ZM671.134 75.168L671.668 76.0135L671.668 76.0135L671.134 75.168ZM675.31 70.416L675.871 69.5883L674.908 68.935L674.407 69.9861L675.31 70.416ZM679.558 73.296L680.473 73.7005L680.811 72.9369L680.119 72.4683L679.558 73.296ZM674.014 79.488L674.543 80.3369L674.547 80.3342L674.014 79.488ZM656.374 50.976L655.667 50.2689L655.659 50.2775L655.65 50.2863L656.374 50.976ZM654.07 54.576L653.146 54.1936L653.143 54.202L653.139 54.2103L654.07 54.576ZM653.278 59.544H652.278V60.544H653.278V59.544ZM674.59 59.544V60.544H675.59V59.544H674.59ZM673.798 54.288L672.857 54.6243L672.862 54.6391L672.867 54.6537L673.798 54.288ZM671.71 50.832L670.951 51.4828L670.968 51.5022L670.985 51.5207L671.71 50.832ZM668.47 48.528L668.081 49.449L668.093 49.4541L668.47 48.528ZM664.654 80.864C662.08 80.864 659.791 80.4277 657.771 79.5748L656.993 81.4172C659.293 82.3883 661.852 82.864 664.654 82.864V80.864ZM657.779 79.5779C655.795 78.7214 654.088 77.5078 652.648 75.9332L651.172 77.2828C652.805 79.0682 654.745 80.4466 656.986 81.4141L657.779 79.5779ZM652.668 75.9555C651.27 74.3314 650.178 72.4041 649.399 70.1602L647.509 70.8158C648.363 73.2759 649.575 75.4286 651.152 77.2605L652.668 75.9555ZM649.401 70.1661C648.625 67.8844 648.23 65.3312 648.23 62.496H646.23C646.23 65.5168 646.651 68.2916 647.507 70.8099L649.401 70.1661ZM648.23 62.496C648.23 59.6109 648.626 57.034 649.401 54.7539L647.507 54.1101C646.651 56.63 646.23 59.4291 646.23 62.496H648.23ZM649.395 54.7707C650.222 52.4739 651.338 50.548 652.731 48.975L651.234 47.649C649.651 49.436 648.414 51.5901 647.513 54.0933L649.395 54.7707ZM652.74 48.9645C654.132 47.3479 655.788 46.118 657.714 45.2667L656.906 43.4373C654.705 44.41 652.808 45.8201 651.224 47.6595L652.74 48.9645ZM657.707 45.2701C659.681 44.4176 661.872 43.984 664.294 43.984V41.984C661.628 41.984 659.164 42.4624 656.914 43.4339L657.707 45.2701ZM664.294 43.984C666.666 43.984 668.779 44.4168 670.65 45.2631L671.474 43.4409C669.313 42.4632 666.914 41.984 664.294 41.984V43.984ZM670.658 45.2667C672.595 46.1225 674.228 47.31 675.568 48.8296L677.068 47.5064C675.529 45.762 673.658 44.4055 671.466 43.4373L670.658 45.2667ZM675.578 48.8407C676.92 50.3161 677.958 52.092 678.686 54.1845L680.575 53.5275C679.767 51.204 678.597 49.1879 677.058 47.4953L675.578 48.8407ZM678.686 54.1845C679.413 56.2742 679.782 58.5855 679.782 61.128H681.782C681.782 58.3904 681.384 55.8538 680.575 53.5275L678.686 54.1845ZM679.782 61.128V63.864H681.782V61.128H679.782ZM680.782 62.864H653.278V64.864H680.782V62.864ZM652.278 63.864V65.592H654.278V63.864H652.278ZM652.278 65.592C652.278 67.3335 652.56 68.9669 653.135 70.4827L655.005 69.7733C654.524 68.5051 654.278 67.1145 654.278 65.592H652.278ZM653.135 70.4827C653.707 71.9905 654.52 73.3066 655.578 74.4177L657.026 73.0383C656.165 72.1334 655.489 71.0495 655.005 69.7733L653.135 70.4827ZM655.595 74.4351C656.701 75.5413 658.013 76.4047 659.52 77.028L660.285 75.18C659.007 74.6513 657.919 73.9307 657.009 73.0209L655.595 74.4351ZM659.558 77.0429C661.121 77.6161 662.824 77.896 664.654 77.896V75.896C663.029 75.896 661.563 75.6479 660.247 75.1651L659.558 77.0429ZM664.654 77.896C667.309 77.896 669.661 77.2815 671.668 76.0135L670.6 74.3225C668.96 75.3585 666.992 75.896 664.654 75.896V77.896ZM671.668 76.0135C673.658 74.7569 675.175 73.0262 676.213 70.8459L674.407 69.9861C673.526 71.8378 672.259 73.2751 670.6 74.3225L671.668 76.0135ZM674.749 71.2437L678.997 74.1237L680.119 72.4683L675.871 69.5883L674.749 71.2437ZM678.644 72.8915C677.63 75.1838 675.926 77.1023 673.481 78.6418L674.547 80.3342C677.286 78.6097 679.279 76.4002 680.473 73.7005L678.644 72.8915ZM673.486 78.6391C671.134 80.1036 668.207 80.864 664.654 80.864V82.864C668.494 82.864 671.807 82.0404 674.543 80.3369L673.486 78.6391ZM664.294 46.736C662.586 46.736 660.987 47.0472 659.508 47.6809L660.296 49.5191C661.506 49.0008 662.834 48.736 664.294 48.736V46.736ZM659.508 47.6809C658.05 48.3056 656.767 49.1686 655.667 50.2689L657.081 51.6831C657.997 50.7674 659.066 50.0463 660.296 49.5191L659.508 47.6809ZM655.65 50.2863C654.598 51.3907 653.765 52.6972 653.146 54.1936L654.994 54.9584C655.527 53.6708 656.23 52.5773 657.098 51.6657L655.65 50.2863ZM653.139 54.2103C652.56 55.685 652.278 57.299 652.278 59.04H654.278C654.278 57.517 654.524 56.155 655.001 54.9417L653.139 54.2103ZM652.278 59.04V59.544H654.278V59.04H652.278ZM653.278 60.544H674.59V58.544H653.278V60.544ZM675.59 59.544V58.752H673.59V59.544H675.59ZM675.59 58.752C675.59 57.011 675.308 55.397 674.729 53.9223L672.867 54.6537C673.344 55.867 673.59 57.229 673.59 58.752H675.59ZM674.74 53.9517C674.217 52.4867 673.451 51.212 672.435 50.1432L670.985 51.5207C671.794 52.372 672.42 53.4013 672.857 54.6243L674.74 53.9517ZM672.47 50.1812C671.496 49.0458 670.283 48.1866 668.848 47.6019L668.093 49.4541C669.25 49.9254 670.196 50.6022 670.951 51.4828L672.47 50.1812ZM668.86 47.607C667.473 47.0204 665.946 46.736 664.294 46.736V48.736C665.714 48.736 666.971 48.9796 668.081 49.449L668.86 47.607ZM692.634 81H691.634V82H692.634V81ZM692.634 43.848V42.848H691.634V43.848H692.634ZM698.394 43.848H699.394V42.848H698.394V43.848ZM698.394 49.896H697.394V50.896H698.394V49.896ZM698.682 49.896V50.896H699.346L699.604 50.2841L698.682 49.896ZM700.122 47.304L700.939 47.8807L700.947 47.8698L700.954 47.8587L700.122 47.304ZM702.21 45.072L701.625 44.2613L701.614 44.2693L701.603 44.2776L702.21 45.072ZM705.234 43.56L704.918 42.6113L704.918 42.6113L705.234 43.56ZM718.626 46.728L717.898 47.4138L717.905 47.4208L718.626 46.728ZM722.154 81V82H723.154V81H722.154ZM716.394 81H715.394V82H716.394V81ZM714.162 50.616L713.414 51.279L713.418 51.2844L713.423 51.2898L714.162 50.616ZM704.226 48.528L703.974 47.5604L703.974 47.5604L704.226 48.528ZM699.186 52.056L700.052 52.557L700.052 52.557L699.186 52.056ZM698.394 81V82H699.394V81H698.394ZM693.634 81V43.848H691.634V81H693.634ZM692.634 44.848H698.394V42.848H692.634V44.848ZM697.394 43.848V49.896H699.394V43.848H697.394ZM698.394 50.896H698.682V48.896H698.394V50.896ZM699.604 50.2841C699.96 49.4391 700.404 48.6383 700.939 47.8807L699.305 46.7273C698.688 47.6017 698.173 48.5289 697.76 49.5079L699.604 50.2841ZM700.954 47.8587C701.47 47.0854 702.09 46.4227 702.818 45.8664L701.603 44.2776C700.698 44.9693 699.927 45.7946 699.29 46.7493L700.954 47.8587ZM702.796 45.8827C703.567 45.3257 704.481 44.865 705.55 44.5087L704.918 42.6113C703.683 43.023 702.581 43.5703 701.625 44.2613L702.796 45.8827ZM705.55 44.5087C706.577 44.1663 707.81 43.984 709.266 43.984V41.984C707.65 41.984 706.195 42.1857 704.918 42.6113L705.55 44.5087ZM709.266 43.984C712.919 43.984 715.761 45.146 717.898 47.4138L719.354 46.0422C716.787 43.318 713.389 41.984 709.266 41.984V43.984ZM717.905 47.4208C720.026 49.6279 721.154 52.8269 721.154 57.168H723.154C723.154 52.4851 721.931 48.7241 719.347 46.0352L717.905 47.4208ZM721.154 57.168V81H723.154V57.168H721.154ZM722.154 80H716.394V82H722.154V80ZM717.394 81V58.176H715.394V81H717.394ZM717.394 58.176C717.394 54.6492 716.628 51.8363 714.901 49.9422L713.423 51.2898C714.672 52.6597 715.394 54.8868 715.394 58.176H717.394ZM714.911 49.953C713.182 48.0014 710.69 47.096 707.61 47.096V49.096C710.29 49.096 712.166 49.8706 713.414 51.279L714.911 49.953ZM707.61 47.096C706.374 47.096 705.161 47.2507 703.974 47.5604L704.479 49.4956C705.499 49.2293 706.542 49.096 707.61 49.096V47.096ZM703.974 47.5604C702.773 47.8737 701.685 48.3485 700.719 48.9919L701.829 50.656C702.592 50.1475 703.472 49.7583 704.479 49.4956L703.974 47.5604ZM700.719 48.9919C699.726 49.6543 698.924 50.5123 698.321 51.555L700.052 52.557C700.504 51.7757 701.094 51.1457 701.829 50.656L700.719 48.9919ZM698.321 51.555C697.693 52.6394 697.394 53.8729 697.394 55.224H699.394C699.394 54.1751 699.623 53.2966 700.052 52.557L698.321 51.555ZM697.394 55.224V81H699.394V55.224H697.394ZM698.394 80H692.634V82H698.394V80Z" fill="#222222" mask="url(#path-2-outside-1_60_16)"/>
<path d="M428 96L470.499 13.5002" stroke="url(#paint2_linear_60_16)" stroke-width="10" stroke-linecap="round"/>
<defs>
<linearGradient id="paint0_linear_60_16" x1="776" y1="54.2496" x2="8" y2="54.2496" gradientUnits="userSpaceOnUse">
<stop stop-color="#A0DABA"/>
<stop offset="1" stop-color="#AD6AFF"/>
</linearGradient>
<linearGradient id="paint1_linear_60_16" x1="38" y1="54" x2="806" y2="54" gradientUnits="userSpaceOnUse">
<stop offset="0.5" stop-color="#A0DABA"/>
<stop offset="0.8" stop-color="#AD6AFF"/>
</linearGradient>
<linearGradient id="paint2_linear_60_16" x1="475.863" y1="8.98437" x2="426.376" y2="99.4569" gradientUnits="userSpaceOnUse">
<stop stop-color="#A0DABA"/>
<stop offset="1" stop-color="#6F5096"/>
</linearGradient>
</defs>
</svg>
